<svg xmlns="http://www.w3.org/2000/svg" xmlns:xlink="http://www.w3.org/1999/xlink" width="500" height="500" viewBox="0 0 500 500"><defs><style>.cls-1{isolation:isolate;}.cls-2{fill:#e5e5e5;}.cls-3{fill:#ed3424;}.cls-4{opacity:0.5;}.cls-4,.cls-6,.cls-7{mix-blend-mode:multiply;}.cls-5{fill:#fff;}.cls-6{opacity:0.3;fill:url(#Degradado_sin_nombre_12);}.cls-7{opacity:0.2;fill:url(#Degradado_sin_nombre_12-2);}</style><linearGradient id="Degradado_sin_nombre_12" x1="251" y1="433.78" x2="251" y2="373.37" gradientUnits="userSpaceOnUse"><stop offset="0" stop-color="#a6a6a6"/><stop offset="0.1" stop-color="#a6a6a6" stop-opacity="0.79"/><stop offset="0.24" stop-color="#a6a6a6" stop-opacity="0.55"/><stop offset="0.38" stop-color="#a6a6a6" stop-opacity="0.35"/><stop offset="0.52" stop-color="#a6a6a6" stop-opacity="0.2"/><stop offset="0.67" stop-color="#a6a6a6" stop-opacity="0.09"/><stop offset="0.83" stop-color="#a6a6a6" stop-opacity="0.02"/><stop offset="1" stop-color="#a6a6a6" stop-opacity="0"/></linearGradient><linearGradient id="Degradado_sin_nombre_12-2" x1="249" y1="436.95" x2="249" y2="406.54" gradientTransform="translate(2 27.24)" xlink:href="#Degradado_sin_nombre_12"/></defs><title>Artboard 2copia</title><g class="cls-1"><g id="BACKGROUND"><rect class="cls-2" width="500" height="500"/></g><g id="OBJECTS"><rect class="cls-3" x="76.28" y="278.38" width="54.29" height="155.4"/><rect class="cls-3" x="150.06" y="177.55" width="54.29" height="256.23"/><rect class="cls-3" x="223.85" y="352.11" width="54.29" height="81.67"/><rect class="cls-3" x="297.64" y="164.55" width="54.29" height="269.23"/><rect class="cls-3" x="371.43" y="254.58" width="54.29" height="179.2"/><polygon class="cls-3" points="86.42 500 5.64 500 76.28 433.78 130.57 433.78 86.42 500"/><polygon class="cls-3" points="186.7 500 114.75 500 150.06 433.78 204.36 433.78 186.7 500"/><polygon class="cls-3" points="286.98 500 215.02 500 223.85 433.78 278.15 433.78 286.98 500"/><polygon class="cls-3" points="387.25 500 315.3 500 297.64 433.78 351.94 433.78 387.25 500"/><polygon class="cls-3" points="496.36 500 415.58 500 371.43 433.78 425.72 433.78 496.36 500"/><image class="cls-4" width="82" height="74" transform="translate(62.9 206.17)" xlink:href="Artboard%202copia1.png"/><polygon class="cls-5" points="135.07 213.06 71.77 213.06 71.77 261.63 96.25 261.63 103.42 268.81 110.6 261.63 135.07 261.63 135.07 213.06"/><image class="cls-4" width="94" height="89" transform="translate(130.9 86.84)" xlink:href="Artboard%202copia2.png"/><polygon class="cls-5" points="215.02 93.18 139.4 93.18 139.4 155.37 168.64 155.37 177.21 164.55 185.78 155.37 215.02 155.37 215.02 93.18"/><image class="cls-4" width="81" height="102" transform="translate(210.9 249.84)" xlink:href="Artboard%202copia3.png"/><polygon class="cls-5" points="282.65 256.92 219.35 256.92 219.35 330.07 243.83 330.07 251 340.87 258.17 330.07 282.65 330.07 282.65 256.92"/><image class="cls-4" width="89" height="86" transform="translate(280.9 77.84)" xlink:href="Artboard%202copia4.png"/><polygon class="cls-5" points="360.26 84.92 289.32 84.92 289.32 143.68 316.75 143.68 324.79 152.35 332.83 143.68 360.26 143.68 360.26 84.92"/><image class="cls-4" width="88" height="111" transform="translate(354.9 145.84)" xlink:href="Artboard%202copia5.png"/><polygon class="cls-5" points="433.89 152.18 363.26 152.18 363.26 233.87 390.57 233.87 398.58 245.94 406.58 233.87 433.89 233.87 433.89 152.18"/><path class="cls-3" d="M86.06,244.32V225.49H81V222.9c3-.21,5.46-1.23,6.23-3.08h2.59v24.5Z"/><path class="cls-3" d="M105.66,235.71v3.43H104v5.18h-3.71v-5.18H92.47v-3.08l7.8-16.24H104v15.89Zm-9.55,0h4.13V227h-.07Z"/><path class="cls-3" d="M114.87,223.32v5.32a3.75,3.75,0,1,1-7.49,0v-5.32a3.75,3.75,0,1,1,7.49,0Zm-5.32,21.35,11.62-25.2h2.31l-11.62,25.2Zm.35-21.35v5.32c0,1.05.42,1.58,1.22,1.58s1.23-.53,1.23-1.58v-5.32c0-1-.42-1.58-1.23-1.58S109.9,222.27,109.9,223.32Zm15.75,12.18v5.32a3.75,3.75,0,1,1-7.49,0V235.5a3.75,3.75,0,1,1,7.49,0Zm-5,0v5.32c0,1.05.42,1.58,1.22,1.58s1.23-.53,1.23-1.58V235.5c0-1.05-.42-1.57-1.23-1.57S120.68,234.45,120.68,235.5Z"/><path class="cls-3" d="M165.14,107.66v1.41c0,2.3-.88,3.85-2.7,4.58v.07c2,.8,2.94,2.56,2.94,5.25v1.86c0,3.78-2.17,6-5.95,6s-6-2.17-6-5.88v-1.51l3.57-.17v1.22c0,2,.74,2.91,2.28,2.91s2.34-1,2.34-2.84v-1.89c0-2.17-.8-3.15-2.69-3.15h-1.54v-3.43H159c1.71,0,2.45-.91,2.45-3V107.8c0-1.75-.77-2.73-2.21-2.73s-2.13.91-2.13,2.91v1.22l-3.57-.17v-1.51c0-3.71,2.13-5.88,5.81-5.88S165.14,103.88,165.14,107.66Z"/><path class="cls-3" d="M180.05,107.84v12.81c0,3.85-2.28,6.2-6,6.2s-6-2.35-6-6.2V107.84c0-3.85,2.27-6.2,6-6.2S180.05,104,180.05,107.84Zm-8.26,0v12.75c0,1.82.8,2.8,2.27,2.8s2.28-1,2.28-2.8V107.87c0-1.82-.81-2.8-2.28-2.8S171.79,106.05,171.79,107.87Z"/><path class="cls-3" d="M190.16,105.49v5.33a3.75,3.75,0,1,1-7.49,0v-5.33a3.75,3.75,0,1,1,7.49,0Zm-5.32,21.36,11.62-25.21h2.31l-11.62,25.21Zm.35-21.36v5.33c0,1,.42,1.57,1.23,1.57s1.22-.53,1.22-1.57v-5.33c0-1-.42-1.57-1.22-1.57S185.19,104.44,185.19,105.49Zm15.75,12.19V123a3.75,3.75,0,1,1-7.49,0v-5.32a3.75,3.75,0,1,1,7.49,0Zm-5,0V123c0,1,.42,1.57,1.23,1.57s1.22-.52,1.22-1.57v-5.32c0-1.05-.42-1.58-1.22-1.58S196,116.63,196,117.68Z"/><path class="cls-3" d="M246.77,269.37v1.4c0,2.31-.88,3.85-2.66,4.59v.07c1.92.8,2.87,2.59,2.87,5.25v1.85c0,3.78-2.28,6-6.13,6s-6.12-2.24-6.12-6v-1.85c0-2.66.94-4.45,2.87-5.25v-.07c-1.79-.74-2.66-2.28-2.66-4.59v-1.4c0-3.78,2.2-6,5.91-6S246.77,265.59,246.77,269.37Zm-8.33,10.71v2.21c0,1.82.91,2.83,2.41,2.83s2.42-1,2.42-2.83v-2.21c0-1.82-.91-2.83-2.42-2.83S238.44,278.26,238.44,280.08Zm.21-10.67v1.78c0,1.68.8,2.63,2.2,2.63s2.21-.95,2.21-2.63v-1.78c0-1.68-.81-2.63-2.21-2.63S238.65,267.73,238.65,269.41Z"/><path class="cls-3" d="M256.57,267.2v5.32a3.75,3.75,0,1,1-7.5,0V267.2a3.75,3.75,0,1,1,7.5,0Zm-5.32,21.35,11.62-25.2h2.31l-11.62,25.2Zm.34-21.35v5.32c0,1.05.43,1.58,1.23,1.58s1.23-.53,1.23-1.58V267.2c0-1.05-.42-1.57-1.23-1.57S251.59,266.15,251.59,267.2Zm15.76,12.18v5.32a3.75,3.75,0,1,1-7.49,0v-5.32a3.75,3.75,0,1,1,7.49,0Zm-5,0v5.32c0,1.05.42,1.58,1.22,1.58s1.23-.53,1.23-1.58v-5.32c0-1.05-.42-1.57-1.23-1.57S262.38,278.33,262.38,279.38Z"/><path class="cls-3" d="M313.64,98.44v1.4c0,2.31-.87,3.85-2.69,4.59v.07q2.94,1.2,2.94,5.25v1.85c0,3.78-2.17,6-5.95,6s-5.95-2.17-5.95-5.88v-1.5l3.57-.18v1.23c0,2,.73,2.9,2.27,2.9s2.35-1,2.35-2.83v-1.89c0-2.17-.81-3.15-2.7-3.15h-1.54v-3.43h1.54c1.72,0,2.45-.91,2.45-3V98.58c0-1.75-.77-2.73-2.2-2.73s-2.14.91-2.14,2.91V100L302,99.81V98.3c0-3.71,2.14-5.88,5.81-5.88S313.64,94.66,313.64,98.44Z"/><path class="cls-3" d="M327.26,98v.91c0,2.38-.7,4.45-3.05,8.23l-4.13,6.61h7.18v3.5H315.85v-3.15l5.49-8.85c1.72-2.77,2.21-4.48,2.21-6.48V98.3c0-1.61-.7-2.45-2.07-2.45s-2.06.84-2.06,2.91V100l-3.57-.17V98.13c0-3.61,2.13-5.71,5.7-5.71S327.26,94.48,327.26,98Z"/><path class="cls-3" d="M336.81,96.27v5.32a3.75,3.75,0,1,1-7.49,0V96.27a3.75,3.75,0,1,1,7.49,0Zm-5.32,21.35,11.62-25.2h2.31l-11.62,25.2Zm.35-21.35v5.32c0,1,.42,1.58,1.23,1.58s1.22-.53,1.22-1.58V96.27c0-1-.42-1.57-1.22-1.57S331.84,95.22,331.84,96.27Zm15.75,12.18v5.32a3.75,3.75,0,1,1-7.49,0v-5.32a3.75,3.75,0,1,1,7.49,0Zm-5,0v5.32c0,1,.42,1.58,1.23,1.58s1.22-.53,1.22-1.58v-5.32c0-1-.42-1.57-1.22-1.57S342.62,107.4,342.62,108.45Z"/><path class="cls-3" d="M381,184.3V165.47H375.9v-2.59c3-.21,5.46-1.23,6.23-3.08h2.59v24.5Z"/><path class="cls-3" d="M400.22,165.22v1.09l-3.57.17v-.87c0-1.86-.7-2.73-2.17-2.73s-2.24.84-2.24,2.52v5.07h.07a4.15,4.15,0,0,1,3.22-1.33c2.73,0,4.9,2,4.9,6v3.32c0,3.86-2.27,6.2-6,6.2s-5.92-2.34-5.92-6.2V165.36c0-3.71,2.21-5.91,5.88-5.91S400.22,161.51,400.22,165.22Zm-8,10.15v3c0,1.82.81,2.8,2.24,2.8s2.24-1,2.24-2.8v-3c0-1.82-.8-2.8-2.24-2.8S392.24,173.55,392.24,175.37Z"/><path class="cls-3" d="M410.23,163.3v5.32a3.75,3.75,0,1,1-7.49,0V163.3a3.75,3.75,0,1,1,7.49,0Zm-5.32,21.35,11.62-25.2h2.31l-11.62,25.2Zm.35-21.35v5.32c0,1,.42,1.57,1.23,1.57s1.22-.52,1.22-1.57V163.3c0-1.05-.42-1.58-1.22-1.58S405.26,162.25,405.26,163.3ZM421,175.48v5.32a3.75,3.75,0,1,1-7.49,0v-5.32a3.75,3.75,0,1,1,7.49,0Zm-5,0v5.32c0,1,.42,1.58,1.23,1.58s1.22-.53,1.22-1.58v-5.32c0-1-.42-1.58-1.22-1.58S416,174.43,416,175.48Z"/><path d="M82.25,43.13a.34.34,0,0,1-.34.36H80.53a.36.36,0,0,1-.36-.36V36.85a.34.34,0,0,0-.34-.36h-5a.34.34,0,0,0-.34.36v6.28a.36.36,0,0,1-.36.36H72.71a.33.33,0,0,1-.33-.36V28.63a.34.34,0,0,1,.33-.37H74.1a.36.36,0,0,1,.36.37v5.84a.34.34,0,0,0,.34.36h5a.34.34,0,0,0,.34-.36V28.63a.36.36,0,0,1,.36-.37h1.38a.34.34,0,0,1,.34.37Z"/><path d="M93.49,28.63a.42.42,0,0,1,.39-.37h1.36a.29.29,0,0,1,.31.32,2.7,2.7,0,0,1-.06.36L91.93,43c-.07.29-.23.45-.5.45H88.15a.48.48,0,0,1-.5-.45l-3.54-14.1a2.83,2.83,0,0,1-.07-.36.29.29,0,0,1,.32-.32h1.43a.41.41,0,0,1,.38.37l3.11,12.84c0,.21.13.37.34.37H90c.2,0,.29-.16.34-.37Z"/><path d="M103.78,39.12c0-.21-.14-.37-.34-.37H98.77c-.2,0-.32.16-.36.37l-1,4a.42.42,0,0,1-.39.36H95.64a.29.29,0,0,1-.31-.32,1.88,1.88,0,0,1,.07-.36L99,28.72c.06-.3.22-.46.49-.46h3.2c.27,0,.43.16.5.46l3.6,14.09a3.21,3.21,0,0,1,.07.36.29.29,0,0,1-.32.32h-1.36a.41.41,0,0,1-.38-.36Zm-2.2-8.84c0-.2-.13-.36-.34-.36h-.34c-.2,0-.29.16-.34.36L99,36.74a.3.3,0,0,0,0,.13c0,.16.11.23.36.23h3.51c.2,0,.36-.07.36-.25,0,0,0-.07,0-.11Z"/><path d="M119.28,38.35c0,3-2.18,5.14-5.6,5.14h-5.12a.36.36,0,0,1-.36-.36V42.2a.35.35,0,0,1,.36-.36h.72a.34.34,0,0,0,.34-.37V30.28a.34.34,0,0,0-.34-.36h-.72a.36.36,0,0,1-.36-.37v-.92a.36.36,0,0,1,.36-.37h5.12c3.42,0,5.6,2.18,5.6,5.15Zm-2.09-4.69c0-2.25-1.27-3.74-3.51-3.74h-1.63a.34.34,0,0,0-.34.36V41.47a.34.34,0,0,0,.34.37h1.63c2.24,0,3.51-1.5,3.51-3.74Z"/><path d="M125.57,31.16a2.87,2.87,0,0,1,2.88-2.9h5.94a.36.36,0,0,1,.36.37v.92a.36.36,0,0,1-.36.37h-5.53a1.2,1.2,0,0,0-1.2,1.22v3.33a.34.34,0,0,0,.34.36h3.92a.36.36,0,0,1,.36.37v.93a.36.36,0,0,1-.36.36H128a.34.34,0,0,0-.34.36v6.28a.36.36,0,0,1-.36.36h-1.39a.34.34,0,0,1-.34-.36Z"/><path d="M142.25,39.12c0-.21-.13-.37-.34-.37h-4.67c-.2,0-.31.16-.36.37l-.95,4a.42.42,0,0,1-.39.36h-1.42a.29.29,0,0,1-.32-.32,1.88,1.88,0,0,1,.07-.36L137.38,29a2.81,2.81,0,1,1,4.89-1.9,2.72,2.72,0,0,1-.61,1.76l3.58,13.94a1.88,1.88,0,0,1,.07.36.29.29,0,0,1-.32.32h-1.36a.41.41,0,0,1-.38-.36Zm-2.2-8.84c0-.2-.13-.36-.34-.36h-.34c-.2,0-.29.16-.34.36l-1.51,6.25a2.42,2.42,0,0,0-.07.32c0,.18.16.25.36.25h3.51c.21,0,.37-.07.37-.25a1.57,1.57,0,0,0-.07-.29Zm-.59-1.93a1.25,1.25,0,1,0-1.24-1.24A1.22,1.22,0,0,0,139.46,28.35Z"/><path d="M157.27,42.88a.61.61,0,0,1,.12.34c0,.16-.12.27-.32.27h-1.54c-.23,0-.36-.07-.55-.36l-3.64-5.78a1.58,1.58,0,0,1-.32-1V35.2a.36.36,0,0,1,.36-.37h2.18a1.2,1.2,0,0,0,1.2-1.22V31.14a1.2,1.2,0,0,0-1.2-1.22h-3.72a.34.34,0,0,0-.34.36V43.13a.36.36,0,0,1-.36.36h-1.38a.34.34,0,0,1-.34-.36V30.28a.34.34,0,0,0-.34-.36h-.73a.36.36,0,0,1-.36-.37v-.92a.36.36,0,0,1,.36-.37H154a2.87,2.87,0,0,1,2.87,2.9v2.43a2.87,2.87,0,0,1-2.87,2.9h-.84Z"/><path d="M173.25,38.35c0,3-2.18,5.14-5.6,5.14h-5.12a.35.35,0,0,1-.36-.36V42.2a.35.35,0,0,1,.36-.36h.72a.34.34,0,0,0,.34-.37V30.28a.34.34,0,0,0-.34-.36h-.72a.35.35,0,0,1-.36-.37v-.92a.35.35,0,0,1,.36-.37h5.12c3.42,0,5.6,2.18,5.6,5.15Zm-2.09-4.69c0-2.25-1.27-3.74-3.51-3.74H166a.34.34,0,0,0-.34.36V41.47a.34.34,0,0,0,.34.37h1.63c2.24,0,3.51-1.5,3.51-3.74Z"/><path d="M177.37,30.28a.34.34,0,0,0-.34-.36h-1.41a.36.36,0,0,1-.36-.37v-.92a.36.36,0,0,1,.36-.37h5.13a.36.36,0,0,1,.36.37v.92a.36.36,0,0,1-.36.37h-1a.34.34,0,0,0-.34.36V41.47a.34.34,0,0,0,.34.37h2.09a.35.35,0,0,1,.36.36v.93a.36.36,0,0,1-.36.36h-7.61a.36.36,0,0,1-.37-.36V42.2a.35.35,0,0,1,.37-.36H177a.34.34,0,0,0,.34-.37Z"/><path d="M191.17,42.29c0-.11,0-.18-.14-.18a.27.27,0,0,0-.18.09,3.33,3.33,0,0,1-2.72,1.29h-1.67a2.87,2.87,0,0,1-2.88-2.9V31.16a2.87,2.87,0,0,1,2.88-2.9h5.71a.36.36,0,0,1,.36.37v.92a.36.36,0,0,1-.36.37h-5.31a1.2,1.2,0,0,0-1.2,1.22v9.47a1.2,1.2,0,0,0,1.2,1.23h1.25a3,3,0,0,0,3-3V37.08a.34.34,0,0,0-.34-.37h-1.85a.35.35,0,0,1-.37-.36v-.93a.36.36,0,0,1,.37-.36h3.94a.34.34,0,0,1,.34.36v7.71a.34.34,0,0,1-.34.36h-1.34a.36.36,0,0,1-.36-.36Z"/><path d="M202.38,30.28a.34.34,0,0,0-.34-.36H198.6a.36.36,0,0,1-.36-.37v-.92a.36.36,0,0,1,.36-.37h9.65a.35.35,0,0,1,.36.37v.92a.35.35,0,0,1-.36.37h-3.44a.34.34,0,0,0-.34.36V43.13a.36.36,0,0,1-.36.36h-1.39a.34.34,0,0,1-.34-.36Z"/><path d="M211.85,30.28a.34.34,0,0,0-.34-.36h-1.4a.36.36,0,0,1-.36-.37v-.92a.36.36,0,0,1,.36-.37h5.12a.36.36,0,0,1,.36.37v.92a.36.36,0,0,1-.36.37h-.95a.34.34,0,0,0-.34.36V41.47a.34.34,0,0,0,.34.37h2.08a.35.35,0,0,1,.37.36v.93a.36.36,0,0,1-.37.36h-7.61a.36.36,0,0,1-.36-.36V42.2a.35.35,0,0,1,.36-.36h2.76a.34.34,0,0,0,.34-.37Z"/><path d="M218.74,28.63a.34.34,0,0,1,.34-.37h1.38a.36.36,0,0,1,.37.37V41.47a.34.34,0,0,0,.34.37h5.71a.35.35,0,0,1,.36.36v.93a.36.36,0,0,1-.36.36h-7.8a.34.34,0,0,1-.34-.36Z"/><path d="M240.22,39.12c0-.21-.13-.37-.34-.37h-4.67c-.2,0-.31.16-.36.37l-.95,4a.42.42,0,0,1-.39.36h-1.42a.29.29,0,0,1-.32-.32,3.21,3.21,0,0,1,.07-.36l3.58-14.09c.07-.3.22-.46.5-.46h3.19c.27,0,.43.16.5.46l3.6,14.09a1.88,1.88,0,0,1,.07.36.29.29,0,0,1-.32.32H241.6a.41.41,0,0,1-.38-.36ZM238,30.28c0-.2-.13-.36-.34-.36h-.34c-.2,0-.29.16-.34.36l-1.56,6.46a.3.3,0,0,0,0,.13c0,.16.11.23.36.23h3.51c.21,0,.37-.07.37-.25a.81.81,0,0,1,0-.11Z"/><path d="M246.52,30.28a.34.34,0,0,0-.34-.36h-3.44a.36.36,0,0,1-.37-.37v-.92a.36.36,0,0,1,.37-.37h9.65a.36.36,0,0,1,.36.37v.92a.36.36,0,0,1-.36.37h-3.45a.34.34,0,0,0-.34.36V43.13a.35.35,0,0,1-.36.36h-1.38a.34.34,0,0,1-.34-.36Z"/><path d="M260.48,43.13a.36.36,0,0,1-.37.36h-1.38a.34.34,0,0,1-.34-.36V28.63a.34.34,0,0,1,.34-.37h1.38a.36.36,0,0,1,.37.37ZM262,35.06a.78.78,0,0,1,.21-.59l3.89-5.84a.59.59,0,0,1,.59-.37h1.16c.25,0,.38.09.38.27a.84.84,0,0,1-.13.41l-4.22,6.37a.82.82,0,0,0-.11.36.56.56,0,0,0,.11.32l4.74,6.82a.77.77,0,0,1,.16.41c0,.18-.16.27-.41.27H267a.65.65,0,0,1-.61-.36l-4.08-5.89a1.59,1.59,0,0,1-.32-1Z"/><path d="M276.77,28.26a2.87,2.87,0,0,1,2.88,2.9v9.43a2.87,2.87,0,0,1-2.88,2.9h-4.33a2.87,2.87,0,0,1-2.88-2.9V31.16a2.87,2.87,0,0,1,2.88-2.9Zm-3.92,1.66a1.2,1.2,0,0,0-1.2,1.22V38.5l5.87-7.72a1.22,1.22,0,0,0-1.16-.86Zm4.71,10.69V33.23l-5.89,7.68a1.2,1.2,0,0,0,1.18.93h3.51A1.2,1.2,0,0,0,277.56,40.61Z"/><path d="M292.49,42.88a.61.61,0,0,1,.12.34c0,.16-.12.27-.32.27h-1.54c-.23,0-.37-.07-.55-.36l-3.64-5.78a1.58,1.58,0,0,1-.32-1V35.2a.36.36,0,0,1,.36-.37h2.18a1.2,1.2,0,0,0,1.2-1.22V31.14a1.2,1.2,0,0,0-1.2-1.22h-3.72a.34.34,0,0,0-.34.36V43.13a.36.36,0,0,1-.36.36H283a.34.34,0,0,1-.34-.36V30.28a.34.34,0,0,0-.34-.36h-.73a.36.36,0,0,1-.36-.37v-.92a.36.36,0,0,1,.36-.37h7.61a2.87,2.87,0,0,1,2.88,2.9v2.43a2.87,2.87,0,0,1-2.88,2.9h-.83Z"/><path d="M294.64,28.63a.34.34,0,0,1,.34-.37h8a.36.36,0,0,1,.37.37v.92a.36.36,0,0,1-.37.37h-5.93a.34.34,0,0,0-.34.36v4.19a.33.33,0,0,0,.34.36H301a.36.36,0,0,1,.36.37v.93a.36.36,0,0,1-.36.36h-3.92a.34.34,0,0,0-.34.36v4.62a.34.34,0,0,0,.34.37H303a.35.35,0,0,1,.37.36v.93a.36.36,0,0,1-.37.36h-8a.34.34,0,0,1-.34-.36Z"/><path d="M309.05,31.16a2.87,2.87,0,0,1,2.88-2.9h5.94a.36.36,0,0,1,.36.37v.92a.36.36,0,0,1-.36.37h-5.53a1.2,1.2,0,0,0-1.2,1.22v3.33a.33.33,0,0,0,.34.36h3.92a.36.36,0,0,1,.36.37v.93a.36.36,0,0,1-.36.36h-3.92a.34.34,0,0,0-.34.36v6.28a.36.36,0,0,1-.36.36h-1.39a.34.34,0,0,1-.34-.36Z"/><path d="M326.73,28.26a2.86,2.86,0,0,1,2.87,2.9v9.43a2.86,2.86,0,0,1-2.87,2.9H322.4a2.87,2.87,0,0,1-2.88-2.9V31.16a2.87,2.87,0,0,1,2.88-2.9Zm-3.92,1.66a1.2,1.2,0,0,0-1.2,1.22v9.47a1.2,1.2,0,0,0,1.2,1.23h3.51a1.2,1.2,0,0,0,1.2-1.23V31.14a1.2,1.2,0,0,0-1.2-1.22Z"/><path d="M342.45,42.88a.61.61,0,0,1,.12.34c0,.16-.12.27-.32.27h-1.54c-.23,0-.37-.07-.55-.36l-3.64-5.78a1.58,1.58,0,0,1-.32-1V35.2a.36.36,0,0,1,.36-.37h2.18a1.2,1.2,0,0,0,1.2-1.22V31.14a1.2,1.2,0,0,0-1.2-1.22H335a.34.34,0,0,0-.34.36V43.13a.36.36,0,0,1-.36.36h-1.38a.34.34,0,0,1-.34-.36V30.28a.34.34,0,0,0-.34-.36h-.73a.36.36,0,0,1-.36-.37v-.92a.36.36,0,0,1,.36-.37h7.61a2.87,2.87,0,0,1,2.88,2.9v2.43a2.87,2.87,0,0,1-2.88,2.9h-.83Z"/><path d="M353.21,41.84a1.2,1.2,0,0,0,1.2-1.23V38.84c0-.68-.27-1-1.2-1.45L350.4,36c-1.81-.88-2.87-1.4-2.87-3.24V31.16a2.86,2.86,0,0,1,2.87-2.9h5a.36.36,0,0,1,.37.37v.92a.36.36,0,0,1-.37.37h-4.62a1.2,1.2,0,0,0-1.2,1.22v1.54c0,.73.48,1.09,1.2,1.45l2.81,1.38c2,1,2.88,1.54,2.88,3.4v1.68a2.87,2.87,0,0,1-2.88,2.9h-6a.36.36,0,0,1-.36-.36V42.2a.35.35,0,0,1,.36-.36Z"/><path d="M361.14,30.28a.34.34,0,0,0-.34-.36h-3.44a.36.36,0,0,1-.36-.37v-.92a.36.36,0,0,1,.36-.37H367a.36.36,0,0,1,.37.37v.92a.36.36,0,0,1-.37.37h-3.44a.34.34,0,0,0-.34.36V43.13a.36.36,0,0,1-.36.36h-1.39a.34.34,0,0,1-.34-.36Z"/><path d="M374.83,38.75h-5.28l-2,4.38a.63.63,0,0,1-.5.36h-1.36a.31.31,0,0,1-.34-.32,1,1,0,0,1,.1-.36l6.75-14.09c.13-.28.29-.46.56-.46h10.45a.36.36,0,0,1,.36.37v.92a.36.36,0,0,1-.36.37h-5.94a.34.34,0,0,0-.34.36v4.19a.34.34,0,0,0,.34.36h3.92a.36.36,0,0,1,.37.37v.93a.36.36,0,0,1-.37.36h-3.92a.34.34,0,0,0-.34.36v4.62a.34.34,0,0,0,.34.37h5.94a.35.35,0,0,1,.36.36v.93a.36.36,0,0,1-.36.36h-8a.34.34,0,0,1-.34-.36Zm-4.51-1.65h4.51V29.92h-.95c-.21,0-.32.18-.41.36Z"/><path d="M396,42.88a.61.61,0,0,1,.12.34c0,.16-.12.27-.32.27h-1.54c-.23,0-.36-.07-.54-.36l-3.65-5.78a1.58,1.58,0,0,1-.32-1V35.2a.36.36,0,0,1,.36-.37h2.18a1.2,1.2,0,0,0,1.2-1.22V31.14a1.2,1.2,0,0,0-1.2-1.22h-3.72a.34.34,0,0,0-.34.36V43.13a.36.36,0,0,1-.36.36H386.5a.34.34,0,0,1-.34-.36V30.28a.34.34,0,0,0-.34-.36h-.73a.36.36,0,0,1-.36-.37v-.92a.36.36,0,0,1,.36-.37h7.62a2.87,2.87,0,0,1,2.87,2.9v2.43a2.87,2.87,0,0,1-2.87,2.9h-.84Z"/><path d="M400.25,43.13a.36.36,0,0,1-.36.36h-1.38a.34.34,0,0,1-.34-.36V28.63a.34.34,0,0,1,.34-.37h1.38a.36.36,0,0,1,.36.37Zm1.5-8.07a.81.81,0,0,1,.2-.59l3.9-5.84a.59.59,0,0,1,.59-.37h1.15c.25,0,.39.09.39.27a.87.87,0,0,1-.14.41l-4.21,6.37a.85.85,0,0,0-.12.36.58.58,0,0,0,.12.32l4.73,6.82a.69.69,0,0,1,.16.41c0,.18-.16.27-.41.27h-1.36a.65.65,0,0,1-.61-.36l-4.08-5.89a1.57,1.57,0,0,1-.31-1Z"/><path d="M412.83,30.28a.34.34,0,0,0-.34-.36H409a.36.36,0,0,1-.36-.37v-.92a.36.36,0,0,1,.36-.37h9.65a.36.36,0,0,1,.37.37v.92a.36.36,0,0,1-.37.37h-3.44a.34.34,0,0,0-.34.36V43.13a.36.36,0,0,1-.36.36h-1.38a.34.34,0,0,1-.34-.36Z"/><path d="M423.09,38.12a2.87,2.87,0,0,1,1.22-2.79l1.11-.93c1.09-.93,1.32-1.36,1.32-2.29v-1a1.2,1.2,0,0,0-1.2-1.22h-5a.36.36,0,0,1-.37-.37v-.92a.36.36,0,0,1,.37-.37h5.43a2.87,2.87,0,0,1,2.88,2.9v1.05c0,1.72-.86,2.47-2.06,3.51l-1.07.93a1.26,1.26,0,0,0-.52,1.17v.64a.36.36,0,0,1-.36.36h-1.38a.34.34,0,0,1-.34-.36Zm1.18,2.42a1.59,1.59,0,1,1-1.59,1.59A1.63,1.63,0,0,1,424.27,40.54Z"/><rect class="cls-6" x="1" y="373.37" width="500" height="60.41"/><rect class="cls-7" x="1" y="433.78" width="500" height="30.4" transform="translate(502 897.97) rotate(180)"/><path class="cls-3" d="M87.72,254.11a.12.12,0,0,1-.12.13h-1a.12.12,0,0,1-.12-.13v-2.05a.12.12,0,0,0-.12-.13H84.85a.12.12,0,0,0-.12.13v2.05a.13.13,0,0,1-.13.13h-1c-.08,0-.12-.05-.12-.13V249a.12.12,0,0,1,.12-.13h1a.13.13,0,0,1,.13.13v1.9a.12.12,0,0,0,.12.13h1.54a.12.12,0,0,0,.12-.13V249a.12.12,0,0,1,.12-.13h1a.12.12,0,0,1,.12.13Z"/><path class="cls-3" d="M91.35,252.89c0-.09-.06-.16-.17-.16H89.8a.21.21,0,0,0-.21.18l-.28,1.2a.15.15,0,0,1-.14.13h-.94c-.08,0-.11,0-.11-.09a.44.44,0,0,1,0-.15l1.25-5a.17.17,0,0,1,.17-.16h1.82a.17.17,0,0,1,.17.16l1.26,5a.78.78,0,0,1,0,.14c0,.06,0,.1-.11.1h-1a.13.13,0,0,1-.13-.13Zm-1.48-1.21v.06c0,.06,0,.09.11.09h1c.09,0,.13,0,.13-.08s0-.07,0-.1L90.7,250c0-.08,0-.13-.12-.13h-.19c-.07,0-.1,0-.12.13Z"/><path class="cls-3" d="M97.53,254a.21.21,0,0,1,0,.12c0,.06,0,.09-.12.09h-1a.24.24,0,0,1-.21-.13L95,252.32a.53.53,0,0,1-.11-.34v-.66a.13.13,0,0,1,.13-.13h.77a.42.42,0,0,0,.42-.43v-.56a.42.42,0,0,0-.42-.43H94.59a.12.12,0,0,0-.12.13v4.21a.13.13,0,0,1-.13.13h-1a.12.12,0,0,1-.12-.13V249.9a.12.12,0,0,0-.12-.13h-.25a.12.12,0,0,1-.13-.12V249a.13.13,0,0,1,.13-.13h3.48a1,1,0,0,1,1,1V251a1,1,0,0,1-1,1h-.29Z"/><path class="cls-3" d="M100.18,249.9a.12.12,0,0,0-.12-.13H98.84a.12.12,0,0,1-.12-.12V249a.12.12,0,0,1,.12-.13h3.89a.13.13,0,0,1,.13.13v.65a.12.12,0,0,1-.13.12h-1.22a.12.12,0,0,0-.12.13v4.21a.12.12,0,0,1-.12.13h-1a.12.12,0,0,1-.12-.13Z"/><path class="cls-3" d="M107.78,254a.19.19,0,0,1,0,.12q0,.09-.12.09h-1a.24.24,0,0,1-.21-.13l-1.29-1.79a.53.53,0,0,1-.11-.34v-.66a.13.13,0,0,1,.13-.13H106a.42.42,0,0,0,.42-.43v-.56a.42.42,0,0,0-.42-.43h-1.16a.12.12,0,0,0-.12.13v4.21a.12.12,0,0,1-.12.13h-1a.12.12,0,0,1-.12-.13V249.9a.12.12,0,0,0-.12-.13h-.26a.12.12,0,0,1-.12-.12V249a.12.12,0,0,1,.12-.13h3.49a1,1,0,0,1,1,1V251a1,1,0,0,1-1,1h-.3Z"/><path class="cls-3" d="M111.13,252.89c0-.09-.06-.16-.17-.16h-1.37a.21.21,0,0,0-.22.18l-.28,1.2c0,.08-.06.13-.14.13H108c-.08,0-.11,0-.11-.09a1,1,0,0,1,0-.15l1.25-5a.18.18,0,0,1,.18-.16h1.81c.1,0,.15.06.18.16l1.25,5a.39.39,0,0,1,0,.14c0,.06,0,.1-.12.1h-1c-.08,0-.12-.05-.14-.13Zm-1.47-1.21a.15.15,0,0,0,0,.06c0,.06,0,.09.11.09h1c.09,0,.13,0,.13-.08a.36.36,0,0,0,0-.1l-.37-1.68c0-.08,0-.13-.12-.13h-.18c-.07,0-.11,0-.12.13Z"/><path class="cls-3" d="M115.74,249a.14.14,0,0,1,.13-.13h1a.1.1,0,0,1,.11.11.69.69,0,0,1,0,.13l-1.26,5c0,.11-.08.16-.17.16h-1.88c-.1,0-.15-.05-.18-.16l-1.24-5a.79.79,0,0,1,0-.13.1.1,0,0,1,.11-.11h1c.08,0,.12.06.14.13l1,4.15a.12.12,0,0,0,.12.12h.12c.07,0,.1-.05.12-.12Z"/><path class="cls-3" d="M117.36,249a.12.12,0,0,1,.12-.13h1a.13.13,0,0,1,.13.13v4.21a.12.12,0,0,0,.12.13h2a.12.12,0,0,1,.12.13v.64a.12.12,0,0,1-.12.13h-3.23c-.08,0-.12-.05-.12-.13Z"/><path class="cls-3" d="M121.23,249.9a.12.12,0,0,0-.12-.13H119.9a.12.12,0,0,1-.13-.12V249a.13.13,0,0,1,.13-.13h3.89a.12.12,0,0,1,.12.13v.65a.12.12,0,0,1-.12.12h-1.22a.12.12,0,0,0-.12.13v4.21a.13.13,0,0,1-.13.13h-1a.12.12,0,0,1-.12-.13Z"/><path class="cls-3" d="M146.17,133.89a.12.12,0,0,1,.12-.13h3.31a.13.13,0,0,1,.13.13v.65a.13.13,0,0,1-.13.13h-2.1a.12.12,0,0,0-.12.13v1a.12.12,0,0,0,.12.12h1.39a.12.12,0,0,1,.12.13v.65a.12.12,0,0,1-.12.13H147.5a.12.12,0,0,0-.12.12v1.16a.12.12,0,0,0,.12.12h2.1a.13.13,0,0,1,.13.13V139a.13.13,0,0,1-.13.13h-3.31a.12.12,0,0,1-.12-.13Z"/><path class="cls-3" d="M154.63,138.92a.24.24,0,0,1,.05.12c0,.07-.05.1-.12.1h-1a.24.24,0,0,1-.21-.13l-1.28-1.8a.52.52,0,0,1-.12-.34v-.66a.13.13,0,0,1,.13-.13h.77a.42.42,0,0,0,.42-.43v-.55a.42.42,0,0,0-.42-.43h-1.15a.12.12,0,0,0-.12.13V139a.13.13,0,0,1-.13.13h-1a.12.12,0,0,1-.12-.13V134.8a.12.12,0,0,0-.12-.13H150a.13.13,0,0,1-.13-.13v-.65a.13.13,0,0,1,.13-.13h3.48a1,1,0,0,1,1,1v1.09a1,1,0,0,1-1,1h-.29Z"/><path class="cls-3" d="M157.83,139.14a1.63,1.63,0,0,1-1.63-1.65v-3.6a.12.12,0,0,1,.12-.13h1a.13.13,0,0,1,.13.13v3.27c0,.8.26,1.07,1.06,1.07h.15a.42.42,0,0,0,.42-.43v-3.91a.13.13,0,0,1,.13-.13h1a.12.12,0,0,1,.12.13v4.22a1,1,0,0,1-1,1Z"/><path class="cls-3" d="M161,135.19c0-1,.42-1.43,1.42-1.43h1.44c1,0,1.42.43,1.42,1.43v2.52c0,1-.42,1.43-1.42,1.43h-1.44c-1,0-1.42-.43-1.42-1.43Zm1.22,2.45c0,.43.15.59.58.59h.68c.43,0,.58-.16.58-.59v-2.38c0-.43-.15-.59-.58-.59h-.68c-.43,0-.58.16-.58.59Z"/><path class="cls-3" d="M166,134.8a.12.12,0,0,0-.12-.13h-.26a.13.13,0,0,1-.13-.13v-.65a.13.13,0,0,1,.13-.13h2.46c1.61,0,2,.74,2,1.65s-.34,1.81-1.89,1.81h-.52a.12.12,0,0,1-.12-.13v-.65a.12.12,0,0,1,.12-.12H168c.58,0,.82-.24.82-.82s-.24-.83-.82-.83h-.67a.12.12,0,0,0-.12.13V139a.13.13,0,0,1-.13.13h-1A.12.12,0,0,1,166,139Z"/><path class="cls-3" d="M174.33,138.39a.17.17,0,0,1-.18.16h-1.5a.16.16,0,0,1-.17-.16L172,135c0-.08-.05-.13-.12-.13h-.07a.12.12,0,0,0-.12.13v4a.13.13,0,0,1-.13.13h-1a.12.12,0,0,1-.12-.13v-5.12a.12.12,0,0,1,.12-.13h2a.17.17,0,0,1,.17.16l.44,3.44c0,.07.05.13.12.13h.06c.07,0,.11-.06.12-.13l.44-3.44a.18.18,0,0,1,.18-.16h2a.12.12,0,0,1,.12.13V139a.12.12,0,0,1-.12.13h-.95a.13.13,0,0,1-.13-.13v-4c0-.08,0-.13-.12-.13h-.07c-.07,0-.11,0-.12.13Z"/><path class="cls-3" d="M180.09,137.63h-1.71l-.52,1.38c0,.07-.06.13-.13.13h-1a.11.11,0,0,1-.11-.12.5.5,0,0,1,0-.12l2.05-5a.24.24,0,0,1,.21-.16h4.63a.13.13,0,0,1,.13.13v.65a.13.13,0,0,1-.13.13h-2.09a.12.12,0,0,0-.12.13v1a.12.12,0,0,0,.12.12h1.38a.13.13,0,0,1,.13.13v.65a.13.13,0,0,1-.13.13h-1.38a.12.12,0,0,0-.12.12v1.16a.12.12,0,0,0,.12.12h2.09a.13.13,0,0,1,.13.13V139a.13.13,0,0,1-.13.13h-3.31a.12.12,0,0,1-.12-.13Zm-1.36-.91h1.36v-2h-.52c-.07,0-.11.06-.13.13Z"/><path class="cls-3" d="M188.64,138.92a.24.24,0,0,1,.05.12c0,.07-.05.1-.12.1h-1a.24.24,0,0,1-.21-.13l-1.29-1.8a.51.51,0,0,1-.11-.34v-.66a.13.13,0,0,1,.13-.13h.77a.42.42,0,0,0,.42-.43v-.55a.42.42,0,0,0-.42-.43h-1.16c-.07,0-.11.05-.11.13V139a.13.13,0,0,1-.13.13h-1a.12.12,0,0,1-.12-.13V134.8a.12.12,0,0,0-.12-.13H184a.12.12,0,0,1-.12-.13v-.65a.12.12,0,0,1,.12-.13h3.49a1,1,0,0,1,1,1v1.09a1,1,0,0,1-1,1h-.3Z"/><path class="cls-3" d="M190.42,139a.13.13,0,0,1-.13.13h-1a.12.12,0,0,1-.12-.13v-5.12a.12.12,0,0,1,.12-.13h1a.13.13,0,0,1,.13.13Zm.4-2.9a.49.49,0,0,1,.08-.27l1.3-2c.07-.1.11-.13.21-.13h.92c.08,0,.13,0,.13.1a.22.22,0,0,1-.05.14l-1.51,2.25a.38.38,0,0,0,0,.13.25.25,0,0,0,0,.11l1.83,2.41a.22.22,0,0,1,.06.13c0,.07-.06.11-.14.11h-1c-.09,0-.14,0-.21-.13l-1.46-2a.47.47,0,0,1-.13-.33Z"/><path class="cls-3" d="M195.72,138.23c.24,0,.42-.11.42-.35v-.25c0-.24-.15-.36-.48-.52l-1-.48c-.64-.31-1-.5-1-1.15v-.69a1,1,0,0,1,1-1h2.26a.12.12,0,0,1,.12.13v.65a.12.12,0,0,1-.12.13h-1.69c-.24,0-.42.11-.42.35v.18c0,.26.18.36.47.51l1,.48c.72.36,1,.55,1,1.2v.72a1,1,0,0,1-1,1H193.7a.12.12,0,0,1-.12-.13v-.65a.12.12,0,0,1,.12-.13Z"/><path class="cls-3" d="M197.71,135.19c0-1,.42-1.43,1.42-1.43h1.44c1,0,1.42.43,1.42,1.43v2.52c0,1-.42,1.43-1.42,1.43h-1.44c-1,0-1.42-.43-1.42-1.43Zm1.22,2.45c0,.43.15.59.58.59h.68c.43,0,.58-.16.58-.59v-2.38c0-.43-.15-.59-.58-.59h-.68c-.43,0-.58.16-.58.59Z"/><path class="cls-3" d="M206.49,138.39a.17.17,0,0,1-.18.16h-1.5a.16.16,0,0,1-.17-.16l-.47-3.43c0-.08,0-.13-.12-.13H204a.12.12,0,0,0-.12.13v4a.13.13,0,0,1-.13.13h-1a.12.12,0,0,1-.12-.13v-5.12a.12.12,0,0,1,.12-.13h2a.17.17,0,0,1,.17.16l.44,3.44c0,.07.05.13.12.13h.06c.07,0,.11-.06.12-.13l.44-3.44a.18.18,0,0,1,.18-.16h2a.12.12,0,0,1,.12.13V139a.12.12,0,0,1-.12.13h-1a.13.13,0,0,1-.13-.13v-4c0-.08,0-.13-.12-.13h-.07c-.07,0-.11,0-.12.13Z"/><path class="cls-3" d="M159.76,144.4a.12.12,0,0,0-.12-.13h-.26a.12.12,0,0,1-.12-.13v-.65a.12.12,0,0,1,.12-.13h2.47c1.6,0,2,.74,2,1.65s-.33,1.81-1.88,1.81h-.52a.13.13,0,0,1-.13-.13V146a.13.13,0,0,1,.13-.13h.35c.58,0,.82-.23.82-.81s-.24-.83-.82-.83h-.66c-.08,0-.12,0-.12.13v4.21a.13.13,0,0,1-.13.13h-1a.12.12,0,0,1-.12-.13Z"/><path class="cls-3" d="M165.94,142.06a1.25,1.25,0,0,1,1.14,1.76l1.18,4.68a.5.5,0,0,1,0,.12c0,.07,0,.12-.11.12h-1c-.08,0-.12-.06-.14-.13l-.27-1.22c0-.1-.06-.16-.17-.16h-1.38a.2.2,0,0,0-.21.17l-.28,1.21c0,.07-.06.13-.14.13h-.94c-.08,0-.11-.05-.11-.12a.5.5,0,0,1,0-.12l1.19-4.77a1.42,1.42,0,0,1-.07-.42A1.23,1.23,0,0,1,165.94,142.06Zm.22,2.46-.22,0-.23,0-.38,1.66a.11.11,0,0,0,0,0c0,.07,0,.09.11.09h.91c.11,0,.18,0,.18-.13v0Zm-.22-.84a.37.37,0,1,0-.37-.37A.36.36,0,0,0,165.94,143.68Z"/><path class="cls-3" d="M169.83,144.39a1,1,0,0,1,1-1h2.65a.13.13,0,0,1,.13.13v.65a.13.13,0,0,1-.13.13h-2a.42.42,0,0,0-.42.43v.7a.11.11,0,0,0,.12.12h1.46a.13.13,0,0,1,.13.13v.65a.13.13,0,0,1-.13.13h-1.46a.11.11,0,0,0-.12.12v2.06a.13.13,0,0,1-.13.13h-1a.12.12,0,0,1-.12-.13Z"/><path class="cls-3" d="M176.15,147.39c0-.1-.06-.16-.17-.16h-1.37a.21.21,0,0,0-.22.17l-.28,1.21a.14.14,0,0,1-.13.13H173c-.08,0-.11,0-.11-.1a.78.78,0,0,1,0-.14l1.25-5c0-.1.08-.16.18-.16h1.81c.1,0,.15.06.18.16l1.25,5a.31.31,0,0,1,0,.13.1.1,0,0,1-.11.11h-1a.16.16,0,0,1-.14-.13Zm-1.47-1.21a.11.11,0,0,0,0,0c0,.07,0,.09.11.09h1c.09,0,.13,0,.13-.08a.37.37,0,0,0,0-.09l-.37-1.69c0-.07-.05-.13-.12-.13h-.18c-.07,0-.11.06-.12.13Z"/><path class="cls-3" d="M182.33,148.52a.17.17,0,0,1,0,.12c0,.06,0,.1-.12.1h-1c-.08,0-.13,0-.2-.13l-1.29-1.8a.51.51,0,0,1-.11-.34v-.66a.12.12,0,0,1,.12-.13h.77a.43.43,0,0,0,.43-.43v-.55a.43.43,0,0,0-.43-.43h-1.15a.12.12,0,0,0-.12.13v4.21a.13.13,0,0,1-.13.13h-1a.12.12,0,0,1-.12-.13V144.4a.12.12,0,0,0-.12-.13h-.26a.13.13,0,0,1-.13-.13v-.65a.13.13,0,0,1,.13-.13h3.49a1,1,0,0,1,1,1v1.09a1,1,0,0,1-1,1h-.3Z"/><path class="cls-3" d="M183.74,144.4c0-.08,0-.13-.12-.13h-1.21a.13.13,0,0,1-.13-.13v-.65a.13.13,0,0,1,.13-.13h3.88a.13.13,0,0,1,.13.13v.65a.13.13,0,0,1-.13.13h-1.21a.12.12,0,0,0-.12.13v4.21a.13.13,0,0,1-.13.13h-1a.12.12,0,0,1-.12-.13Z"/><path class="cls-3" d="M186.8,143.49a.12.12,0,0,1,.12-.13h3.31a.13.13,0,0,1,.13.13v.65a.13.13,0,0,1-.13.13h-2.1c-.07,0-.11,0-.11.13v1a.11.11,0,0,0,.11.12h1.39a.13.13,0,0,1,.13.13v.65a.13.13,0,0,1-.13.13h-1.39a.11.11,0,0,0-.11.12v1.16a.11.11,0,0,0,.11.12h2.1a.13.13,0,0,1,.13.13v.65a.13.13,0,0,1-.13.13h-3.31a.12.12,0,0,1-.12-.13Z"/><path class="cls-3" d="M195.12,148.61a.12.12,0,0,1-.12.13h-1.13c-.07,0-.11-.07-.14-.13L192,145.05v3.56a.13.13,0,0,1-.13.13H191a.12.12,0,0,1-.12-.13v-4.22a.11.11,0,0,0-.12-.12h-.25a.13.13,0,0,1-.13-.13v-.65a.13.13,0,0,1,.13-.13h1.64c.1,0,.16.07.21.16l1.63,3.33v-3.36a.12.12,0,0,1,.12-.13h.9a.12.12,0,0,1,.12.13Z"/><path class="cls-3" d="M232.55,298.79a1,1,0,0,1,1-1h2.65a.13.13,0,0,1,.13.13v.65a.13.13,0,0,1-.13.13h-2a.42.42,0,0,0-.42.43v.69a.12.12,0,0,0,.12.13h1.46a.13.13,0,0,1,.13.13v.65a.12.12,0,0,1-.13.12h-1.46a.12.12,0,0,0-.12.13V303a.13.13,0,0,1-.13.13h-1a.12.12,0,0,1-.12-.13Z"/><path class="cls-3" d="M236.49,299.19c0-1,.41-1.43,1.41-1.43h1.45c1,0,1.42.43,1.42,1.43v2.52c0,1-.42,1.43-1.42,1.43H237.9c-1,0-1.41-.43-1.41-1.43ZM237.7,301l1.76-2.16c-.08-.14-.24-.19-.49-.19h-.68c-.43,0-.59.16-.59.59Zm1.85.62v-1.79L237.77,302c.08.16.24.22.52.22H239C239.4,302.23,239.55,302.07,239.55,301.64Z"/><path class="cls-3" d="M241.45,297.89a.12.12,0,0,1,.12-.13h1a.12.12,0,0,1,.12.13v4.21a.12.12,0,0,0,.12.13h2a.13.13,0,0,1,.13.13V303a.13.13,0,0,1-.13.13h-3.23a.12.12,0,0,1-.12-.13Z"/><path class="cls-3" d="M245.29,297.89a.12.12,0,0,1,.12-.13h3.31a.13.13,0,0,1,.13.13v.65a.13.13,0,0,1-.13.13h-2.1a.12.12,0,0,0-.12.12v1a.12.12,0,0,0,.12.13H248a.12.12,0,0,1,.12.13v.65a.12.12,0,0,1-.12.12h-1.39a.12.12,0,0,0-.12.13v1.15a.12.12,0,0,0,.12.13h2.1a.13.13,0,0,1,.13.13V303a.13.13,0,0,1-.13.13h-3.31a.12.12,0,0,1-.12-.13Z"/><path class="cls-3" d="M253.75,302.92a.24.24,0,0,1,.05.12c0,.06-.05.1-.12.1h-1a.26.26,0,0,1-.21-.13l-1.29-1.8a.51.51,0,0,1-.11-.34v-.66a.13.13,0,0,1,.13-.13H252a.42.42,0,0,0,.42-.43v-.55a.42.42,0,0,0-.42-.43h-1.15a.12.12,0,0,0-.12.12V303a.13.13,0,0,1-.13.13h-1a.12.12,0,0,1-.12-.13v-4.22a.12.12,0,0,0-.12-.12h-.25a.13.13,0,0,1-.13-.13v-.65a.13.13,0,0,1,.13-.13h3.48a1,1,0,0,1,1,1v1.09a1,1,0,0,1-1,1h-.29Z"/><path class="cls-3" d="M257.21,302.23c.24,0,.42-.11.42-.35v-.26c0-.24-.15-.35-.48-.51l-1-.49c-.64-.31-1-.49-1-1.14v-.69a1,1,0,0,1,1-1h2.25a.13.13,0,0,1,.13.13v.65a.13.13,0,0,1-.13.13h-1.68c-.24,0-.43.11-.43.35v.18c0,.26.19.36.48.51l1,.48c.72.35,1,.55,1,1.2v.72a1,1,0,0,1-1,1h-2.58a.13.13,0,0,1-.13-.13v-.65a.13.13,0,0,1,.13-.13Z"/><path class="cls-3" d="M260.1,298.79a.11.11,0,0,0-.12-.12h-.49a.13.13,0,0,1-.13-.13v-.65a.13.13,0,0,1,.13-.13h2.28a.13.13,0,0,1,.13.13v.65a.13.13,0,0,1-.13.13h-.33a.12.12,0,0,0-.12.12v3.31a.12.12,0,0,0,.12.13h.73a.13.13,0,0,1,.13.13V303a.13.13,0,0,1-.13.13H259a.13.13,0,0,1-.13-.13v-.65a.13.13,0,0,1,.13-.13h1c.08,0,.12-.05.12-.13Z"/><path class="cls-3" d="M265.49,301.19a.12.12,0,0,0-.12-.13H265a.12.12,0,0,1-.13-.12v-.65a.13.13,0,0,1,.13-.13h1.54a.12.12,0,0,1,.12.13V303a.12.12,0,0,1-.12.13h-.86a.13.13,0,0,1-.13-.13v-.3s0-.06,0-.06a.09.09,0,0,0-.06,0,1.19,1.19,0,0,1-1,.46h-.6c-1,0-1.42-.43-1.42-1.43v-2.52c0-1,.42-1.43,1.42-1.43h2.42a.13.13,0,0,1,.13.13v.65a.13.13,0,0,1-.13.13h-2c-.43,0-.58.16-.58.59v2.38c0,.43.15.59.58.59h.6c.43,0,.59-.16.59-.59Z"/><path class="cls-3" d="M228.31,308.39a.12.12,0,0,0-.12-.12h-.26a.13.13,0,0,1-.13-.13v-.65a.13.13,0,0,1,.13-.13h2.47c1.6,0,2,.74,2,1.65s-.33,1.81-1.88,1.81H230a.13.13,0,0,1-.13-.13V310a.13.13,0,0,1,.13-.13h.35c.58,0,.82-.23.82-.81s-.24-.83-.82-.83h-.67a.12.12,0,0,0-.12.12v4.22a.12.12,0,0,1-.12.12h-1a.12.12,0,0,1-.12-.12Z"/><path class="cls-3" d="M237.35,312.52a.21.21,0,0,1,0,.12q0,.09-.12.09h-1a.25.25,0,0,1-.21-.12l-1.29-1.8a.51.51,0,0,1-.11-.34v-.66a.13.13,0,0,1,.13-.13h.76a.43.43,0,0,0,.43-.43v-.55a.43.43,0,0,0-.43-.43H234.4a.12.12,0,0,0-.12.12v4.22a.12.12,0,0,1-.12.12h-1a.12.12,0,0,1-.12-.12v-4.22a.12.12,0,0,0-.12-.12h-.26a.13.13,0,0,1-.13-.13v-.65a.13.13,0,0,1,.13-.13h3.49a1,1,0,0,1,1,1v1.09a1,1,0,0,1-1,1h-.3Z"/><path class="cls-3" d="M237.84,307.49a.12.12,0,0,1,.12-.13h3.31a.12.12,0,0,1,.12.13v.65a.12.12,0,0,1-.12.13h-2.1a.12.12,0,0,0-.12.12v1a.12.12,0,0,0,.12.13h1.39a.12.12,0,0,1,.12.13v.65a.12.12,0,0,1-.12.12h-1.39a.12.12,0,0,0-.12.13v1.15a.12.12,0,0,0,.12.13h2.1a.12.12,0,0,1,.12.13v.65a.12.12,0,0,1-.12.12H238a.11.11,0,0,1-.12-.12Z"/><path class="cls-3" d="M243.64,311.83c.24,0,.43-.11.43-.35v-.26c0-.24-.15-.35-.48-.51l-1-.49c-.64-.31-1-.49-1-1.14v-.69a1,1,0,0,1,1-1h2.25a.13.13,0,0,1,.13.13v.65a.13.13,0,0,1-.13.13h-1.69c-.24,0-.42.11-.42.35v.18c0,.26.18.36.48.51l1,.48c.72.35,1,.55,1,1.2v.72a1,1,0,0,1-1,1h-2.58a.12.12,0,0,1-.13-.12V312a.13.13,0,0,1,.13-.13Z"/><path class="cls-3" d="M247.6,311.83c.24,0,.43-.11.43-.35v-.26c0-.24-.15-.35-.48-.51l-1-.49c-.64-.31-1-.49-1-1.14v-.69a1,1,0,0,1,1-1h2.25a.13.13,0,0,1,.13.13v.65a.13.13,0,0,1-.13.13h-1.69c-.24,0-.42.11-.42.35v.18c0,.26.18.36.48.51l1,.48c.72.35,1,.55,1,1.2v.72a1,1,0,0,1-1,1h-2.58a.12.12,0,0,1-.13-.12V312a.13.13,0,0,1,.13-.13Z"/><path class="cls-3" d="M249.68,307.49a.12.12,0,0,1,.12-.13h3.31a.12.12,0,0,1,.12.13v.65a.12.12,0,0,1-.12.13H251a.12.12,0,0,0-.12.12v1a.12.12,0,0,0,.12.13h1.38a.13.13,0,0,1,.13.13v.65a.12.12,0,0,1-.13.12H251a.12.12,0,0,0-.12.13v1.15a.12.12,0,0,0,.12.13h2.1a.12.12,0,0,1,.12.13v.65a.12.12,0,0,1-.12.12H249.8a.11.11,0,0,1-.12-.12Z"/><path class="cls-3" d="M254.76,308.39a.12.12,0,0,0-.12-.12h-1.22a.13.13,0,0,1-.13-.13v-.65a.13.13,0,0,1,.13-.13h3.89a.12.12,0,0,1,.12.13v.65a.12.12,0,0,1-.12.13h-1.22a.12.12,0,0,0-.12.12v4.22a.12.12,0,0,1-.13.12h-1a.11.11,0,0,1-.12-.12Z"/><path class="cls-3" d="M259,308.39a1,1,0,0,1,1-1h2.65a.13.13,0,0,1,.13.13v.65a.13.13,0,0,1-.13.13h-2a.42.42,0,0,0-.42.43v.69a.12.12,0,0,0,.12.13h1.46a.13.13,0,0,1,.13.13v.65a.12.12,0,0,1-.13.12H260.3a.12.12,0,0,0-.12.13v2.06a.12.12,0,0,1-.13.12h-1a.12.12,0,0,1-.12-.12Z"/><path class="cls-3" d="M267.68,312.52a.24.24,0,0,1,.05.12c0,.06-.05.09-.12.09h-1c-.08,0-.13,0-.21-.12l-1.28-1.8a.51.51,0,0,1-.11-.34v-.66a.12.12,0,0,1,.12-.13h.77a.42.42,0,0,0,.42-.43v-.55a.42.42,0,0,0-.42-.43h-1.15a.12.12,0,0,0-.12.12v4.22a.12.12,0,0,1-.13.12h-1a.12.12,0,0,1-.12-.12v-4.22a.11.11,0,0,0-.12-.12H263a.13.13,0,0,1-.13-.13v-.65a.13.13,0,0,1,.13-.13h3.48a1,1,0,0,1,1,1v1.09a1,1,0,0,1-1,1h-.29Z"/><path class="cls-3" d="M271,311.38c0-.09,0-.16-.16-.16h-1.38a.21.21,0,0,0-.21.18l-.28,1.21a.15.15,0,0,1-.14.12h-.94q-.12,0-.12-.09a.49.49,0,0,1,0-.15l1.25-5a.17.17,0,0,1,.17-.16h1.82a.17.17,0,0,1,.17.16l1.26,5a.78.78,0,0,1,0,.14c0,.06,0,.1-.11.1h-1a.13.13,0,0,1-.13-.12Zm-1.47-1.2a.11.11,0,0,0,0,.05c0,.07,0,.09.12.09h1c.09,0,.13,0,.13-.08a.58.58,0,0,0,0-.1l-.36-1.68c0-.07-.05-.13-.12-.13h-.19c-.07,0-.1.06-.12.13Z"/><path class="cls-3" d="M232.67,320.44a1.87,1.87,0,0,1-2,1.9h-2.37a.13.13,0,0,1-.13-.13v-.65a.13.13,0,0,1,.13-.13h.25c.08,0,.12-.05.12-.13V318a.11.11,0,0,0-.12-.12h-.25a.13.13,0,0,1-.13-.13v-.65a.13.13,0,0,1,.13-.13h2.37a1.87,1.87,0,0,1,2,1.9Zm-1.21-1.57a.93.93,0,0,0-.92-1H230a.12.12,0,0,0-.12.12v3.31a.12.12,0,0,0,.12.13h.5a.94.94,0,0,0,.92-1Z"/><path class="cls-3" d="M233.35,317.09a.12.12,0,0,1,.12-.13h3.31a.13.13,0,0,1,.13.13v.65a.13.13,0,0,1-.13.13h-2.09a.12.12,0,0,0-.12.12v1a.12.12,0,0,0,.12.13h1.38a.13.13,0,0,1,.13.13v.65a.12.12,0,0,1-.13.12h-1.38a.12.12,0,0,0-.12.13v1.15a.12.12,0,0,0,.12.13h2.09a.13.13,0,0,1,.13.13v.65a.13.13,0,0,1-.13.13h-3.31a.12.12,0,0,1-.12-.13Z"/><path class="cls-3" d="M241.17,321.59a.17.17,0,0,1-.18.16H239.5a.17.17,0,0,1-.18-.16l-.46-3.44a.12.12,0,0,0-.12-.12h-.07a.12.12,0,0,0-.12.12v4.06a.13.13,0,0,1-.13.13h-.95a.12.12,0,0,1-.12-.13v-5.12a.12.12,0,0,1,.12-.13h2a.18.18,0,0,1,.18.16l.44,3.44a.12.12,0,0,0,.12.13h.05c.07,0,.11-.06.12-.13l.44-3.44A.18.18,0,0,1,241,317h2a.12.12,0,0,1,.12.13v5.12a.12.12,0,0,1-.12.13h-.95a.13.13,0,0,1-.13-.13v-4.06a.11.11,0,0,0-.12-.12h-.07a.12.12,0,0,0-.12.12Z"/><path class="cls-3" d="M248.62,318.76a.86.86,0,0,1-.31.65,1,1,0,0,1,.71,1v.93a1,1,0,0,1-1,1H245.1a.12.12,0,0,1-.12-.13v-5.12a.12.12,0,0,1,.12-.13h2.51a1,1,0,0,1,1,1Zm-2.43.36H247a.43.43,0,0,0,.43-.43v-.39a.43.43,0,0,0-.43-.43h-.67a.12.12,0,0,0-.12.12Zm0,.9v1.28a.12.12,0,0,0,.12.13h1.07a.43.43,0,0,0,.43-.43v-.54a.44.44,0,0,0-.43-.44Z"/><path class="cls-3" d="M252.41,321c0-.09-.06-.16-.17-.16h-1.38a.21.21,0,0,0-.21.18l-.28,1.21a.16.16,0,0,1-.14.13h-.94c-.08,0-.11,0-.11-.1a.36.36,0,0,1,0-.14l1.25-5a.17.17,0,0,1,.17-.16h1.82a.17.17,0,0,1,.17.16l1.26,5a.3.3,0,0,1,0,.13.1.1,0,0,1-.11.11h-1a.14.14,0,0,1-.13-.13Zm-1.47-1.2a.11.11,0,0,0,0,.05c0,.07,0,.09.11.09h1c.09,0,.13,0,.13-.08s0-.06,0-.1l-.37-1.68c0-.07,0-.13-.12-.13h-.18c-.08,0-.11.06-.13.13Z"/><path class="cls-3" d="M257.11,320.39a.12.12,0,0,0-.12-.13h-.33a.12.12,0,0,1-.12-.12v-.65a.12.12,0,0,1,.12-.13h1.55a.12.12,0,0,1,.12.13v2.72a.12.12,0,0,1-.12.13h-.87a.13.13,0,0,1-.13-.13v-.3s0-.06,0-.06,0,0-.07,0a1.18,1.18,0,0,1-1,.46h-.6c-1,0-1.41-.43-1.41-1.43v-2.52c0-1,.41-1.43,1.41-1.43H258a.12.12,0,0,1,.12.13v.65a.12.12,0,0,1-.12.13h-2c-.43,0-.59.16-.59.59v2.38c0,.43.16.59.59.59h.6c.43,0,.58-.16.58-.59Z"/><path class="cls-3" d="M262,317.09c0-.07.06-.13.14-.13h1a.11.11,0,0,1,.12.11.79.79,0,0,1,0,.13l-1.25,5c0,.1-.08.16-.18.16h-1.88a.17.17,0,0,1-.17-.16l-1.25-5a.79.79,0,0,1,0-.13.11.11,0,0,1,.12-.11h1a.14.14,0,0,1,.13.13l1,4.15c0,.07.05.13.12.13H261c.07,0,.1-.06.12-.13Z"/><path class="cls-3" d="M263.61,317.09a.12.12,0,0,1,.12-.13H267a.13.13,0,0,1,.13.13v.65a.13.13,0,0,1-.13.13h-2.1a.12.12,0,0,0-.12.12v1a.12.12,0,0,0,.12.13h1.39a.12.12,0,0,1,.12.13v.65a.12.12,0,0,1-.12.12h-1.39a.12.12,0,0,0-.12.13v1.15a.12.12,0,0,0,.12.13H267a.13.13,0,0,1,.13.13v.65a.13.13,0,0,1-.13.13h-3.31a.12.12,0,0,1-.12-.13Z"/><path class="cls-3" d="M271.84,320.44a1.87,1.87,0,0,1-2,1.9H267.5a.13.13,0,0,1-.13-.13v-.65a.13.13,0,0,1,.13-.13h.25a.12.12,0,0,0,.12-.13V318a.12.12,0,0,0-.12-.12h-.25a.13.13,0,0,1-.13-.13v-.65a.13.13,0,0,1,.13-.13h2.36a1.87,1.87,0,0,1,2,1.9Zm-1.22-1.57a.93.93,0,0,0-.92-1h-.49a.11.11,0,0,0-.12.12v3.31c0,.08,0,.13.12.13h.49a.94.94,0,0,0,.92-1Z"/><path class="cls-3" d="M312.09,124.44a1,1,0,0,1,1-1h2.66a.12.12,0,0,1,.12.13v.65a.12.12,0,0,1-.12.13h-2a.43.43,0,0,0-.43.43v.69a.12.12,0,0,0,.12.13h1.46a.13.13,0,0,1,.13.13v.65a.13.13,0,0,1-.13.13h-1.46a.12.12,0,0,0-.12.12v2.06a.13.13,0,0,1-.13.13h-1a.12.12,0,0,1-.12-.13Z"/><path class="cls-3" d="M316,124.84c0-1,.42-1.43,1.42-1.43h1.44c1,0,1.42.43,1.42,1.43v2.52c0,1-.42,1.43-1.42,1.43h-1.44c-1,0-1.42-.43-1.42-1.43Zm1.22,1.84,1.76-2.17c-.08-.14-.24-.19-.5-.19h-.68c-.43,0-.58.16-.58.59Zm1.84.61V125.5l-1.78,2.16c.08.16.24.22.52.22h.68C318.93,127.88,319.08,127.72,319.08,127.29Z"/><path class="cls-3" d="M321,123.54a.12.12,0,0,1,.12-.13h1a.13.13,0,0,1,.13.13v4.21a.12.12,0,0,0,.12.13h2a.13.13,0,0,1,.13.13v.65a.13.13,0,0,1-.13.13H321.1a.12.12,0,0,1-.12-.13Z"/><path class="cls-3" d="M327.57,126.84a.12.12,0,0,0-.12-.13h-.33a.12.12,0,0,1-.13-.12v-.65a.13.13,0,0,1,.13-.13h1.54a.12.12,0,0,1,.12.13v2.72a.12.12,0,0,1-.12.13h-.86a.13.13,0,0,1-.13-.13v-.3a.06.06,0,0,0-.05-.06.09.09,0,0,0-.06,0,1.19,1.19,0,0,1-1,.46H326c-1,0-1.42-.43-1.42-1.43v-2.52c0-1,.42-1.43,1.42-1.43h2.42a.13.13,0,0,1,.13.13v.65a.13.13,0,0,1-.13.13h-2c-.43,0-.58.16-.58.59v2.38c0,.43.15.59.58.59h.6c.43,0,.59-.16.59-.59Z"/><path class="cls-3" d="M329.48,123.54a.12.12,0,0,1,.12-.13h3.31a.13.13,0,0,1,.13.13v.65a.13.13,0,0,1-.13.13h-2.1a.12.12,0,0,0-.12.12v1a.12.12,0,0,0,.12.13h1.39a.13.13,0,0,1,.13.13v.65a.13.13,0,0,1-.13.13h-1.39a.12.12,0,0,0-.12.12v1.15a.12.12,0,0,0,.12.13h2.1a.13.13,0,0,1,.13.13v.65a.13.13,0,0,1-.13.13H329.6a.12.12,0,0,1-.12-.13Z"/><path class="cls-3" d="M337.94,128.57a.24.24,0,0,1,.05.12c0,.06-.05.1-.12.1h-1a.26.26,0,0,1-.21-.13l-1.28-1.8a.52.52,0,0,1-.12-.34v-.66a.13.13,0,0,1,.13-.13h.77a.42.42,0,0,0,.42-.43v-.55a.42.42,0,0,0-.42-.43H335a.12.12,0,0,0-.12.12v4.22a.13.13,0,0,1-.13.13h-1a.12.12,0,0,1-.12-.13v-4.22a.11.11,0,0,0-.12-.12h-.25a.13.13,0,0,1-.13-.13v-.65a.13.13,0,0,1,.13-.13h3.48a1,1,0,0,1,1,1v1.09a1,1,0,0,1-1,1h-.29Z"/><path class="cls-3" d="M299.42,134.81a.9.9,0,0,1-.31.65,1,1,0,0,1,.71,1v.93a1,1,0,0,1-1,1h-2.9a.13.13,0,0,1-.13-.13v-5.12a.13.13,0,0,1,.13-.13h2.5a1,1,0,0,1,1,1Zm-2.43.36h.79a.42.42,0,0,0,.42-.43v-.39a.42.42,0,0,0-.42-.43h-.67a.11.11,0,0,0-.12.12Zm0,.9v1.28c0,.08,0,.13.12.13h1.07a.42.42,0,0,0,.42-.43v-.54a.43.43,0,0,0-.42-.44Z"/><path class="cls-3" d="M303.2,137c0-.09-.05-.16-.17-.16h-1.37a.21.21,0,0,0-.22.18l-.28,1.21a.14.14,0,0,1-.13.13h-.95c-.08,0-.11,0-.11-.1a.39.39,0,0,1,0-.14l1.24-5c0-.1.08-.16.18-.16h1.81c.1,0,.15.06.18.16l1.25,5a.31.31,0,0,1,0,.13.1.1,0,0,1-.11.11h-1a.16.16,0,0,1-.14-.13Zm-1.47-1.2a.11.11,0,0,0,0,0c0,.07,0,.09.11.09h1c.09,0,.13,0,.13-.08a.58.58,0,0,0,0-.1l-.37-1.68c0-.07,0-.13-.12-.13h-.18c-.07,0-.1.06-.12.13Z"/><path class="cls-3" d="M309.38,138.17a.17.17,0,0,1,.05.12c0,.06-.05.1-.12.1h-1c-.08,0-.13,0-.2-.13l-1.29-1.8a.51.51,0,0,1-.11-.34v-.66a.13.13,0,0,1,.13-.13h.76a.43.43,0,0,0,.43-.43v-.55a.43.43,0,0,0-.43-.43h-1.15a.12.12,0,0,0-.12.12v4.22a.13.13,0,0,1-.13.13h-1a.12.12,0,0,1-.12-.13V134a.12.12,0,0,0-.12-.12h-.26a.13.13,0,0,1-.13-.13v-.65a.13.13,0,0,1,.13-.13h3.49a1,1,0,0,1,1,1v1.09a1,1,0,0,1-1,1h-.3Z"/><path class="cls-3" d="M309.88,133.14A.12.12,0,0,1,310,133h3.3a.13.13,0,0,1,.13.13v.65a.13.13,0,0,1-.13.13h-2.09a.12.12,0,0,0-.12.12v1a.12.12,0,0,0,.12.13h1.38a.13.13,0,0,1,.13.13V136a.12.12,0,0,1-.13.12h-1.38a.12.12,0,0,0-.12.13v1.15a.12.12,0,0,0,.12.13h2.09a.13.13,0,0,1,.13.13v.65a.13.13,0,0,1-.13.13H310a.12.12,0,0,1-.12-.13Z"/><path class="cls-3" d="M316,134a.11.11,0,0,0-.12-.12H314.7a.13.13,0,0,1-.13-.13v-.65a.13.13,0,0,1,.13-.13h3.88a.13.13,0,0,1,.13.13v.65a.13.13,0,0,1-.13.13h-1.21a.12.12,0,0,0-.12.12v4.22a.13.13,0,0,1-.13.13h-1a.12.12,0,0,1-.12-.13Z"/><path class="cls-3" d="M323.63,138.17a.24.24,0,0,1,.05.12c0,.06-.05.1-.12.1h-1c-.08,0-.13,0-.21-.13l-1.28-1.8a.51.51,0,0,1-.11-.34v-.66a.12.12,0,0,1,.12-.13h.77a.42.42,0,0,0,.42-.43v-.55a.42.42,0,0,0-.42-.43h-1.15a.12.12,0,0,0-.12.12v4.22a.13.13,0,0,1-.13.13h-1a.12.12,0,0,1-.12-.13V134a.11.11,0,0,0-.12-.12H319a.13.13,0,0,1-.13-.13v-.65A.13.13,0,0,1,319,133h3.48a1,1,0,0,1,1,1v1.09a1,1,0,0,1-1,1h-.29Z"/><path class="cls-3" d="M327,137c0-.09-.06-.16-.17-.16h-1.38a.21.21,0,0,0-.21.18l-.28,1.21a.16.16,0,0,1-.14.13h-.94c-.08,0-.12,0-.12-.1a.39.39,0,0,1,0-.14l1.25-5a.17.17,0,0,1,.17-.16H327a.17.17,0,0,1,.17.16l1.26,5a.59.59,0,0,1,0,.13.1.1,0,0,1-.11.11h-1a.14.14,0,0,1-.13-.13Zm-1.48-1.2v0c0,.07,0,.09.11.09h1c.09,0,.13,0,.13-.08s0-.06,0-.1l-.37-1.68c0-.07,0-.13-.12-.13H326c-.07,0-.1.06-.12.13Z"/><path class="cls-3" d="M328.94,134a1,1,0,0,1,1-1h2.66a.13.13,0,0,1,.13.13v.65a.13.13,0,0,1-.13.13h-2a.43.43,0,0,0-.43.43V135a.12.12,0,0,0,.12.13h1.47a.13.13,0,0,1,.13.13V136a.12.12,0,0,1-.13.12h-1.47a.12.12,0,0,0-.12.13v2.06a.12.12,0,0,1-.12.13h-1a.12.12,0,0,1-.12-.13Z"/><path class="cls-3" d="M333.54,134a.12.12,0,0,0-.12-.12h-.5a.13.13,0,0,1-.13-.13v-.65a.13.13,0,0,1,.13-.13h2.29a.13.13,0,0,1,.13.13v.65a.13.13,0,0,1-.13.13h-.34a.12.12,0,0,0-.12.12v3.31a.12.12,0,0,0,.12.13h.74a.13.13,0,0,1,.13.13v.65a.13.13,0,0,1-.13.13h-3.17a.13.13,0,0,1-.13-.13v-.65a.13.13,0,0,1,.13-.13h1a.12.12,0,0,0,.12-.13Z"/><path class="cls-3" d="M337.47,138.26a.13.13,0,0,1-.13.13h-1a.12.12,0,0,1-.12-.13v-5.12a.12.12,0,0,1,.12-.13h1a.13.13,0,0,1,.13.13Zm.4-2.9a.47.47,0,0,1,.08-.27l1.3-2c.07-.1.11-.13.21-.13h.92c.08,0,.13,0,.13.1a.22.22,0,0,1-.05.14L339,135.5a.38.38,0,0,0,0,.13.25.25,0,0,0,0,.11l1.83,2.41a.22.22,0,0,1,.06.13c0,.07-.06.11-.14.11h-1c-.09,0-.14,0-.21-.13l-1.46-2a.47.47,0,0,1-.13-.33Z"/><path class="cls-3" d="M342.17,138.26a.13.13,0,0,1-.13.13h-1a.12.12,0,0,1-.12-.13v-5.12a.12.12,0,0,1,.12-.13h1a.13.13,0,0,1,.13.13Zm.41-2.9a.41.41,0,0,1,.08-.27l1.29-2c.07-.1.11-.13.21-.13h.92c.09,0,.14,0,.14.1a.3.3,0,0,1-.05.14l-1.51,2.25a.24.24,0,0,0,0,.13.17.17,0,0,0,0,.11l1.83,2.41a.2.2,0,0,1,.05.13c0,.07-.05.11-.14.11h-1a.25.25,0,0,1-.22-.13l-1.45-2a.43.43,0,0,1-.13-.33Z"/><path class="cls-3" d="M345.59,133.14a.12.12,0,0,1,.12-.13H349a.12.12,0,0,1,.12.13v.65a.12.12,0,0,1-.12.13h-2.1a.12.12,0,0,0-.12.12v1a.12.12,0,0,0,.12.13h1.38a.13.13,0,0,1,.13.13V136a.12.12,0,0,1-.13.12h-1.38a.12.12,0,0,0-.12.13v1.15a.12.12,0,0,0,.12.13H349a.12.12,0,0,1,.12.13v.65a.12.12,0,0,1-.12.13h-3.31a.12.12,0,0,1-.12-.13Z"/><path class="cls-3" d="M353.91,138.26a.13.13,0,0,1-.13.13h-1.12c-.08,0-.12-.07-.15-.13l-1.71-3.56v3.56a.13.13,0,0,1-.13.13h-.89a.12.12,0,0,1-.12-.13V134a.11.11,0,0,0-.12-.12h-.26a.13.13,0,0,1-.13-.13v-.65a.13.13,0,0,1,.13-.13h1.65c.1,0,.16.07.21.16l1.63,3.33v-3.36a.12.12,0,0,1,.12-.13h.89a.13.13,0,0,1,.13.13Z"/><path class="cls-3" d="M383.38,197.92a.13.13,0,0,1-.13.13h-1a.13.13,0,0,1-.13-.13v-2.06a.12.12,0,0,0-.12-.12H380.5a.12.12,0,0,0-.12.12v2.06a.12.12,0,0,1-.12.13h-1a.12.12,0,0,1-.12-.13V192.8a.12.12,0,0,1,.12-.13h1a.12.12,0,0,1,.12.13v1.9a.12.12,0,0,0,.12.13H382a.12.12,0,0,0,.12-.13v-1.9a.13.13,0,0,1,.13-.13h1a.13.13,0,0,1,.13.13Z"/><path class="cls-3" d="M387,196.69c0-.09-.06-.15-.17-.15h-1.37a.21.21,0,0,0-.22.17l-.28,1.21c0,.07-.06.13-.14.13h-.94c-.08,0-.11,0-.11-.1a.78.78,0,0,1,0-.14l1.25-5a.18.18,0,0,1,.18-.16H387c.1,0,.15.06.18.16l1.25,5a.31.31,0,0,1,0,.13c0,.07,0,.11-.12.11h-1c-.08,0-.12-.06-.14-.13Zm-1.47-1.2a.11.11,0,0,0,0,0c0,.07,0,.09.11.09h1c.09,0,.13,0,.13-.08a.37.37,0,0,0,0-.09l-.37-1.69c0-.07-.05-.13-.12-.13h-.18c-.07,0-.11.06-.12.13Z"/><path class="cls-3" d="M393.18,197.83a.24.24,0,0,1,.05.12c0,.06-.05.1-.12.1h-1c-.08,0-.13,0-.2-.13l-1.29-1.8a.51.51,0,0,1-.11-.34v-.66a.12.12,0,0,1,.12-.13h.77a.43.43,0,0,0,.43-.43V194a.43.43,0,0,0-.43-.43h-1.15a.12.12,0,0,0-.12.12v4.22a.13.13,0,0,1-.13.13h-1a.12.12,0,0,1-.11-.13V193.7a.12.12,0,0,0-.12-.12h-.26a.13.13,0,0,1-.13-.13v-.65a.13.13,0,0,1,.13-.13H392a1,1,0,0,1,1,1v1.09a1,1,0,0,1-1,1h-.3Z"/><path class="cls-3" d="M394.75,192.8a.12.12,0,0,1,.12-.13h3.31a.13.13,0,0,1,.13.13v.65a.13.13,0,0,1-.13.13h-2.09a.12.12,0,0,0-.12.12v1a.12.12,0,0,0,.12.13h1.38a.13.13,0,0,1,.13.13v.65a.13.13,0,0,1-.13.13h-1.38a.12.12,0,0,0-.12.12V197a.12.12,0,0,0,.12.12h2.09a.13.13,0,0,1,.13.13v.65a.13.13,0,0,1-.13.13h-3.31a.12.12,0,0,1-.12-.13Z"/><path class="cls-3" d="M403.08,197.92a.13.13,0,0,1-.13.13h-1.13c-.07,0-.11-.07-.14-.13L400,194.36v3.56a.13.13,0,0,1-.13.13h-.9a.12.12,0,0,1-.12-.13V193.7a.11.11,0,0,0-.12-.12h-.25a.13.13,0,0,1-.13-.13v-.65a.13.13,0,0,1,.13-.13h1.65a.23.23,0,0,1,.2.16l1.63,3.33V192.8a.12.12,0,0,1,.12-.13h.9a.13.13,0,0,1,.13.13Z"/><path class="cls-3" d="M407.78,196.69c0-.09,0-.15-.16-.15h-1.38a.22.22,0,0,0-.22.17l-.28,1.21a.14.14,0,0,1-.13.13h-.95c-.08,0-.11,0-.11-.1a.39.39,0,0,1,0-.14l1.24-5c0-.1.08-.16.18-.16h1.81a.18.18,0,0,1,.18.16l1.26,5a.59.59,0,0,1,0,.13.1.1,0,0,1-.11.11h-1a.16.16,0,0,1-.14-.13Zm-1.47-1.2a.11.11,0,0,0,0,0c0,.07,0,.09.12.09h1c.09,0,.13,0,.13-.08a.37.37,0,0,0,0-.09l-.37-1.69c0-.07,0-.13-.11-.13h-.19c-.07,0-.1.06-.12.13Z"/><path class="cls-3" d="M409.69,193.7a.12.12,0,0,0-.12-.12h-.26a.13.13,0,0,1-.13-.13v-.65a.13.13,0,0,1,.13-.13h2.47c1.6,0,2,.74,2,1.65s-.33,1.81-1.89,1.81h-.52a.12.12,0,0,1-.12-.13v-.65a.12.12,0,0,1,.12-.13h.36c.58,0,.82-.23.82-.81s-.24-.83-.82-.83H411a.12.12,0,0,0-.12.12v4.22a.12.12,0,0,1-.12.13h-1a.12.12,0,0,1-.12-.13Z"/><path class="cls-3" d="M414.45,193.7a.12.12,0,0,0-.12-.12h-.26a.13.13,0,0,1-.13-.13v-.65a.13.13,0,0,1,.13-.13h2.47c1.6,0,2,.74,2,1.65s-.33,1.81-1.88,1.81h-.52A.13.13,0,0,1,416,196v-.65a.13.13,0,0,1,.13-.13h.35c.58,0,.82-.23.82-.81s-.24-.83-.82-.83h-.67a.12.12,0,0,0-.12.12v4.22a.12.12,0,0,1-.12.13h-1a.12.12,0,0,1-.12-.13Z"/><path class="cls-3" d="M370.46,205.75a1.87,1.87,0,0,1-2,1.9h-2.36a.13.13,0,0,1-.13-.13v-.65a.13.13,0,0,1,.13-.13h.25c.08,0,.12-.05.12-.13V203.3a.11.11,0,0,0-.12-.12h-.25a.13.13,0,0,1-.13-.13v-.65a.13.13,0,0,1,.13-.13h2.36a1.87,1.87,0,0,1,2,1.9Zm-1.22-1.57a.93.93,0,0,0-.92-1h-.49a.12.12,0,0,0-.12.12v3.31a.12.12,0,0,0,.12.13h.49a.93.93,0,0,0,.92-1Z"/><path class="cls-3" d="M371.14,202.4a.12.12,0,0,1,.12-.13h3.31a.13.13,0,0,1,.13.13v.65a.13.13,0,0,1-.13.13h-2.09a.11.11,0,0,0-.12.12v1c0,.08,0,.13.12.13h1.38a.13.13,0,0,1,.13.13v.65a.13.13,0,0,1-.13.13h-1.38a.11.11,0,0,0-.12.12v1.15c0,.08,0,.13.12.13h2.09a.13.13,0,0,1,.13.13v.65a.13.13,0,0,1-.13.13h-3.31a.12.12,0,0,1-.12-.13Z"/><path class="cls-3" d="M379.6,207.43a.24.24,0,0,1,0,.12c0,.06,0,.1-.12.1h-1c-.08,0-.13,0-.2-.13l-1.29-1.8a.51.51,0,0,1-.11-.34v-.66a.12.12,0,0,1,.12-.13h.77a.43.43,0,0,0,.43-.43v-.55a.43.43,0,0,0-.43-.43h-1.15a.12.12,0,0,0-.12.12v4.22a.13.13,0,0,1-.13.13h-1a.12.12,0,0,1-.11-.13V203.3a.12.12,0,0,0-.12-.12H375a.13.13,0,0,1-.13-.13v-.65a.13.13,0,0,1,.13-.13h3.49a1,1,0,0,1,1,1v1.09a1,1,0,0,1-1,1h-.3Z"/><path class="cls-3" d="M384,206.29c0-.09-.06-.15-.17-.15h-1.38a.2.2,0,0,0-.21.17l-.28,1.21a.16.16,0,0,1-.14.13h-.94c-.08,0-.12,0-.12-.1a.39.39,0,0,1,0-.14l1.25-5a.17.17,0,0,1,.17-.16h1.82a.17.17,0,0,1,.17.16l1.26,5a.59.59,0,0,1,0,.13.1.1,0,0,1-.11.11h-1a.14.14,0,0,1-.13-.13Zm-1.48-1.2v0c0,.07,0,.09.11.09h1c.09,0,.13,0,.13-.08s0-.06,0-.09l-.37-1.69c0-.07-.05-.13-.12-.13h-.19c-.07,0-.1.06-.12.13Z"/><path class="cls-3" d="M390.15,205.75a1.87,1.87,0,0,1-2,1.9H385.8a.12.12,0,0,1-.12-.13v-.65a.12.12,0,0,1,.12-.13h.26a.12.12,0,0,0,.12-.13V203.3a.12.12,0,0,0-.12-.12h-.26a.12.12,0,0,1-.12-.13v-.65a.12.12,0,0,1,.12-.13h2.37a1.87,1.87,0,0,1,2,1.9Zm-1.22-1.57a.93.93,0,0,0-.92-1h-.49a.11.11,0,0,0-.12.12v3.31c0,.08,0,.13.12.13H388a.94.94,0,0,0,.92-1Z"/><path class="cls-3" d="M393.76,202.4a.16.16,0,0,1,.14-.13h1c.08,0,.11,0,.11.12a.53.53,0,0,1,0,.12l-1.25,5c0,.1-.08.16-.18.16h-1.88a.17.17,0,0,1-.17-.16l-1.25-5a.5.5,0,0,1,0-.12c0-.07,0-.12.11-.12h1a.16.16,0,0,1,.14.13l1,4.15c0,.07,0,.13.12.13h.12c.08,0,.11-.06.12-.13Z"/><path class="cls-3" d="M397.84,206.29c0-.09,0-.15-.16-.15H396.3a.22.22,0,0,0-.22.17l-.28,1.21a.14.14,0,0,1-.13.13h-.95a.1.1,0,0,1-.11-.1.39.39,0,0,1,0-.14l1.24-5c0-.1.08-.16.18-.16h1.82a.17.17,0,0,1,.17.16l1.26,5a.59.59,0,0,1,0,.13.1.1,0,0,1-.11.11h-1a.14.14,0,0,1-.13-.13Zm-1.47-1.2a.11.11,0,0,0,0,0c0,.07,0,.09.12.09h1c.09,0,.13,0,.13-.08a.37.37,0,0,0,0-.09l-.36-1.69c0-.07-.05-.13-.12-.13h-.19c-.07,0-.1.06-.12.13Z"/><path class="cls-3" d="M404,207.43a.21.21,0,0,1,0,.12c0,.06,0,.1-.12.1h-1a.26.26,0,0,1-.21-.13l-1.29-1.8a.51.51,0,0,1-.11-.34v-.66a.13.13,0,0,1,.13-.13h.77a.42.42,0,0,0,.42-.43v-.55a.42.42,0,0,0-.42-.43h-1.16a.12.12,0,0,0-.12.12v4.22a.12.12,0,0,1-.12.13h-1a.12.12,0,0,1-.12-.13V203.3a.12.12,0,0,0-.12-.12h-.26a.12.12,0,0,1-.12-.13v-.65a.12.12,0,0,1,.12-.13h3.49a1,1,0,0,1,1,1v1.09a1,1,0,0,1-1,1h-.3Z"/><path class="cls-3" d="M404.52,202.4a.12.12,0,0,1,.12-.13H408a.12.12,0,0,1,.12.13v.65a.12.12,0,0,1-.12.13h-2.1a.12.12,0,0,0-.12.12v1a.12.12,0,0,0,.12.13h1.39a.12.12,0,0,1,.12.13v.65a.12.12,0,0,1-.12.13h-1.39a.12.12,0,0,0-.12.12v1.15a.12.12,0,0,0,.12.13H408a.12.12,0,0,1,.12.13v.65a.12.12,0,0,1-.12.13h-3.31a.12.12,0,0,1-.12-.13Z"/><path class="cls-3" d="M413,207.43a.24.24,0,0,1,0,.12c0,.06,0,.1-.12.1h-1a.26.26,0,0,1-.21-.13l-1.29-1.8a.51.51,0,0,1-.11-.34v-.66a.13.13,0,0,1,.13-.13h.77a.42.42,0,0,0,.42-.43v-.55a.42.42,0,0,0-.42-.43H410a.11.11,0,0,0-.12.12v4.22a.13.13,0,0,1-.13.13h-1a.12.12,0,0,1-.12-.13V203.3a.12.12,0,0,0-.12-.12h-.25a.13.13,0,0,1-.13-.13v-.65a.13.13,0,0,1,.13-.13h3.48a1,1,0,0,1,1,1v1.09a1,1,0,0,1-1,1h-.29Z"/><path class="cls-3" d="M418.78,205.75a1.87,1.87,0,0,1-2,1.9h-2.36a.13.13,0,0,1-.13-.13v-.65a.13.13,0,0,1,.13-.13h.25a.12.12,0,0,0,.12-.13V203.3a.12.12,0,0,0-.12-.12h-.25a.13.13,0,0,1-.13-.13v-.65a.13.13,0,0,1,.13-.13h2.36a1.87,1.87,0,0,1,2,1.9Zm-1.22-1.57a.93.93,0,0,0-.92-1h-.49a.12.12,0,0,0-.12.12v3.31a.12.12,0,0,0,.12.13h.49a.93.93,0,0,0,.92-1Z"/><path class="cls-3" d="M419.46,202.4a.12.12,0,0,1,.12-.13h3.31a.13.13,0,0,1,.13.13v.65a.13.13,0,0,1-.13.13H420.8a.11.11,0,0,0-.12.12v1c0,.08,0,.13.12.13h1.38a.13.13,0,0,1,.13.13v.65a.13.13,0,0,1-.13.13H420.8a.11.11,0,0,0-.12.12v1.15c0,.08,0,.13.12.13h2.09a.13.13,0,0,1,.13.13v.65a.13.13,0,0,1-.13.13h-3.31a.12.12,0,0,1-.12-.13Z"/><path class="cls-3" d="M427.27,206.9a.16.16,0,0,1-.17.16h-1.5a.16.16,0,0,1-.17-.16l-.47-3.44a.11.11,0,0,0-.12-.12h-.06a.12.12,0,0,0-.12.12v4.06a.13.13,0,0,1-.13.13h-.95a.12.12,0,0,1-.12-.13V202.4a.12.12,0,0,1,.12-.13h2a.17.17,0,0,1,.17.16l.44,3.44c0,.07.05.13.12.13h.06c.07,0,.11-.06.12-.13l.44-3.44a.17.17,0,0,1,.17-.16h2a.12.12,0,0,1,.12.13v5.12a.12.12,0,0,1-.12.13h-.95a.13.13,0,0,1-.13-.13v-4.06a.12.12,0,0,0-.12-.12h-.07a.12.12,0,0,0-.12.12Z"/><path class="cls-3" d="M430.56,208.79a.13.13,0,0,1-.12.09l-.08,0-.32-.12a.11.11,0,0,1-.08-.11.31.31,0,0,1,0-.08l.34-.85a.78.78,0,1,1,1-.75,1.15,1.15,0,0,1-.12.51Z"/><path class="cls-3" d="M382.33,217.12a.12.12,0,0,1-.12.13h-1a.13.13,0,0,1-.13-.13v-2.06a.12.12,0,0,0-.12-.12h-1.53a.11.11,0,0,0-.12.12v2.06a.13.13,0,0,1-.13.13h-1a.12.12,0,0,1-.12-.13V212a.12.12,0,0,1,.12-.13h1a.13.13,0,0,1,.13.13v1.9c0,.08,0,.13.12.13H381a.12.12,0,0,0,.12-.13V212a.13.13,0,0,1,.13-.13h1a.12.12,0,0,1,.12.13Z"/><path class="cls-3" d="M386.21,212a.16.16,0,0,1,.14-.13h1c.08,0,.11,0,.11.12s0,.08,0,.12l-1.26,5a.17.17,0,0,1-.17.16h-1.88a.18.18,0,0,1-.18-.16l-1.25-5s0-.08,0-.12,0-.12.11-.12h1a.16.16,0,0,1,.14.13l1,4.15c0,.07,0,.13.12.13h.12c.07,0,.1-.06.12-.13Z"/><path class="cls-3" d="M388.5,212.9a.12.12,0,0,0-.12-.12h-.5a.13.13,0,0,1-.13-.13V212a.13.13,0,0,1,.13-.13h2.29a.13.13,0,0,1,.13.13v.65a.13.13,0,0,1-.13.13h-.34a.12.12,0,0,0-.12.12v3.32a.12.12,0,0,0,.12.12h.74a.13.13,0,0,1,.13.13v.65a.13.13,0,0,1-.13.13H387.4a.13.13,0,0,1-.13-.13v-.65a.13.13,0,0,1,.13-.13h1a.12.12,0,0,0,.12-.12Z"/><path class="cls-3" d="M392.94,216.34c.24,0,.43-.11.43-.35v-.25c0-.24-.15-.36-.48-.52l-1-.48c-.64-.32-1-.5-1-1.15v-.69a1,1,0,0,1,1-1h2.25a.13.13,0,0,1,.13.13v.65a.13.13,0,0,1-.13.13h-1.69c-.24,0-.42.11-.42.35v.18c0,.26.18.36.48.51l1,.48c.72.36,1,.55,1,1.2v.72a1,1,0,0,1-1,1h-2.58a.13.13,0,0,1-.13-.13v-.65a.13.13,0,0,1,.13-.13Z"/><path class="cls-3" d="M400.33,215.35a1.87,1.87,0,0,1-2,1.9H396a.12.12,0,0,1-.12-.13v-.65a.12.12,0,0,1,.12-.13h.26a.12.12,0,0,0,.12-.12V212.9a.12.12,0,0,0-.12-.12H396a.12.12,0,0,1-.12-.13V212a.12.12,0,0,1,.12-.13h2.37a1.87,1.87,0,0,1,2,1.9Zm-1.22-1.57a.94.94,0,0,0-.92-1h-.49a.11.11,0,0,0-.12.12v3.32a.11.11,0,0,0,.12.12h.49a.93.93,0,0,0,.92-1Z"/><path class="cls-3" d="M401,212a.12.12,0,0,1,.12-.13h3.31a.13.13,0,0,1,.13.13v.65a.13.13,0,0,1-.13.13h-2.1a.12.12,0,0,0-.12.12v1a.12.12,0,0,0,.12.13h1.39a.13.13,0,0,1,.13.13v.65a.13.13,0,0,1-.13.13h-1.39a.12.12,0,0,0-.12.12v1.16a.12.12,0,0,0,.12.12h2.1a.13.13,0,0,1,.13.13v.65a.13.13,0,0,1-.13.13h-3.31a.12.12,0,0,1-.12-.13Z"/><path class="cls-3" d="M409.47,217a.24.24,0,0,1,0,.12c0,.06,0,.1-.12.1h-1a.26.26,0,0,1-.21-.13l-1.28-1.8a.52.52,0,0,1-.12-.34v-.66a.13.13,0,0,1,.13-.13h.77a.42.42,0,0,0,.42-.43v-.55a.42.42,0,0,0-.42-.43h-1.15a.12.12,0,0,0-.12.12v4.22a.13.13,0,0,1-.13.13h-1a.12.12,0,0,1-.12-.13V212.9a.12.12,0,0,0-.12-.12h-.25a.13.13,0,0,1-.13-.13V212a.13.13,0,0,1,.13-.13h3.48a1,1,0,0,1,1,1V214a1,1,0,0,1-1,1H408Z"/><path class="cls-3" d="M411,212a.12.12,0,0,1,.12-.13h3.31a.13.13,0,0,1,.13.13v.65a.13.13,0,0,1-.13.13h-2.09a.11.11,0,0,0-.12.12v1c0,.08,0,.13.12.13h1.38a.13.13,0,0,1,.13.13v.65a.13.13,0,0,1-.13.13h-1.38a.11.11,0,0,0-.12.12v1.16a.11.11,0,0,0,.12.12h2.09a.13.13,0,0,1,.13.13v.65a.13.13,0,0,1-.13.13h-3.31a.12.12,0,0,1-.12-.13Z"/><path class="cls-3" d="M419.5,217a.24.24,0,0,1,.05.12c0,.06-.05.1-.12.1h-1c-.08,0-.13,0-.21-.13l-1.28-1.8a.51.51,0,0,1-.11-.34v-.66a.12.12,0,0,1,.12-.13h.77a.42.42,0,0,0,.42-.43v-.55a.42.42,0,0,0-.42-.43h-1.15a.12.12,0,0,0-.12.12v4.22a.13.13,0,0,1-.13.13h-1a.12.12,0,0,1-.12-.13V212.9a.11.11,0,0,0-.12-.12h-.25a.13.13,0,0,1-.13-.13V212a.13.13,0,0,1,.13-.13h3.48a1,1,0,0,1,1,1V214a1,1,0,0,1-1,1H418Z"/><path class="cls-3" d="M374.37,222.5a1,1,0,0,1,1-1H378a.13.13,0,0,1,.13.13v.65a.13.13,0,0,1-.13.13h-2a.43.43,0,0,0-.43.43v.69a.12.12,0,0,0,.12.13h1.47a.12.12,0,0,1,.12.13v.65a.12.12,0,0,1-.12.13H375.7a.12.12,0,0,0-.12.12v2.06a.12.12,0,0,1-.12.13h-1a.12.12,0,0,1-.12-.13Z"/><path class="cls-3" d="M380.69,225.49c0-.09-.06-.15-.17-.15h-1.38a.2.2,0,0,0-.21.17l-.28,1.21a.16.16,0,0,1-.14.13h-.94c-.08,0-.11,0-.11-.1a.36.36,0,0,1,0-.14l1.25-5a.17.17,0,0,1,.17-.16h1.82c.1,0,.15.06.17.16l1.26,5a.3.3,0,0,1,0,.13.1.1,0,0,1-.11.11h-1a.14.14,0,0,1-.13-.13Zm-1.47-1.2a.11.11,0,0,0,0,.05c0,.07,0,.09.11.09h1c.09,0,.13,0,.13-.08a.31.31,0,0,0,0-.09l-.37-1.69c0-.07-.05-.13-.12-.13h-.18c-.08,0-.11.06-.12.13Z"/><path class="cls-3" d="M386.87,226.63a.24.24,0,0,1,.05.12c0,.06-.05.1-.12.1h-1c-.08,0-.13,0-.21-.13l-1.28-1.8a.52.52,0,0,1-.12-.34v-.66a.13.13,0,0,1,.13-.13h.77a.42.42,0,0,0,.42-.43v-.55a.42.42,0,0,0-.42-.43h-1.15a.12.12,0,0,0-.12.12v4.22a.13.13,0,0,1-.13.13h-1a.12.12,0,0,1-.12-.13V222.5a.12.12,0,0,0-.12-.12h-.25a.13.13,0,0,1-.13-.13v-.65a.13.13,0,0,1,.13-.13h3.48a1,1,0,0,1,1,1v1.09a1,1,0,0,1-1,1h-.29Z"/><path class="cls-3" d="M388.28,222.5a.12.12,0,0,0-.12-.12h-1.22a.12.12,0,0,1-.12-.13v-.65a.12.12,0,0,1,.12-.13h3.89a.13.13,0,0,1,.13.13v.65a.13.13,0,0,1-.13.13h-1.21a.11.11,0,0,0-.12.12v4.22a.13.13,0,0,1-.13.13h-1a.12.12,0,0,1-.12-.13Z"/><path class="cls-3" d="M392.62,226.72a.12.12,0,0,1-.12.13h-1a.12.12,0,0,1-.12-.13V221.6a.12.12,0,0,1,.12-.13h1a.12.12,0,0,1,.12.13Zm.41-2.9a.49.49,0,0,1,.08-.27l1.3-2c.07-.1.11-.13.21-.13h.91c.09,0,.14,0,.14.1a.3.3,0,0,1-.05.14L394.11,224a.38.38,0,0,0,0,.13.25.25,0,0,0,0,.11l1.83,2.41a.22.22,0,0,1,.06.13c0,.07-.06.11-.15.11h-1c-.09,0-.14,0-.21-.13l-1.46-2a.47.47,0,0,1-.13-.33Z"/><path class="cls-3" d="M395.88,222.9c0-1,.42-1.43,1.42-1.43h1.44c1,0,1.42.43,1.42,1.43v2.52c0,1-.42,1.43-1.42,1.43H397.3c-1,0-1.42-.43-1.42-1.43Zm1.22,2.45c0,.43.15.59.58.59h.68c.43,0,.58-.16.58-.59V223c0-.43-.15-.59-.58-.59h-.68c-.43,0-.58.16-.58.59Z"/><path class="cls-3" d="M405.17,226.72a.13.13,0,0,1-.13.13h-1.13c-.07,0-.11-.07-.14-.13l-1.71-3.56v3.56a.13.13,0,0,1-.13.13H401a.12.12,0,0,1-.12-.13V222.5a.11.11,0,0,0-.12-.12h-.25a.13.13,0,0,1-.13-.13v-.65a.13.13,0,0,1,.13-.13h1.64c.1,0,.16.07.21.16L404,225V221.6a.12.12,0,0,1,.12-.13h.9a.13.13,0,0,1,.13.13Z"/><path class="cls-3" d="M407,222.5a.12.12,0,0,0-.12-.12h-1.22a.13.13,0,0,1-.13-.13v-.65a.13.13,0,0,1,.13-.13h3.89a.13.13,0,0,1,.13.13v.65a.13.13,0,0,1-.13.13h-1.22a.12.12,0,0,0-.12.12v4.22a.12.12,0,0,1-.12.13h-1a.12.12,0,0,1-.12-.13Z"/><path class="cls-3" d="M414.61,226.63a.21.21,0,0,1,0,.12c0,.06,0,.1-.12.1h-1a.26.26,0,0,1-.21-.13l-1.29-1.8a.51.51,0,0,1-.11-.34v-.66a.13.13,0,0,1,.13-.13h.76a.43.43,0,0,0,.43-.43v-.55a.43.43,0,0,0-.43-.43h-1.15a.12.12,0,0,0-.12.12v4.22a.12.12,0,0,1-.12.13h-1a.12.12,0,0,1-.12-.13V222.5a.12.12,0,0,0-.12-.12H410a.13.13,0,0,1-.13-.13v-.65a.13.13,0,0,1,.13-.13h3.49a1,1,0,0,1,1,1v1.09a1,1,0,0,1-1,1h-.3Z"/><path class="cls-3" d="M415,222.9c0-1,.41-1.43,1.41-1.43h1.45c1,0,1.41.43,1.41,1.43v2.52c0,1-.41,1.43-1.41,1.43h-1.45c-1,0-1.41-.43-1.41-1.43Zm1.21,2.45c0,.43.15.59.59.59h.68c.43,0,.58-.16.58-.59V223c0-.43-.15-.59-.58-.59h-.68c-.44,0-.59.16-.59.59Z"/><path class="cls-3" d="M420,221.6a.12.12,0,0,1,.12-.13h1a.13.13,0,0,1,.13.13v4.22a.12.12,0,0,0,.12.12h2a.13.13,0,0,1,.13.13v.65a.13.13,0,0,1-.13.13H420.1a.12.12,0,0,1-.12-.13Z"/></g></g></svg>