<svg xmlns="http://www.w3.org/2000/svg" xmlns:xlink="http://www.w3.org/1999/xlink" width="500" height="500" viewBox="0 0 500 500"><defs><style>.cls-1{isolation:isolate;}.cls-2{fill:#e5e5e5;}.cls-3{fill:#ed3424;}.cls-4{opacity:0.5;}.cls-4,.cls-6,.cls-7{mix-blend-mode:multiply;}.cls-5{fill:#fff;}.cls-6{opacity:0.3;fill:url(#Degradado_sin_nombre_12);}.cls-7{opacity:0.2;fill:url(#Degradado_sin_nombre_12-2);}</style><linearGradient id="Degradado_sin_nombre_12" x1="251" y1="433.78" x2="251" y2="373.37" gradientUnits="userSpaceOnUse"><stop offset="0" stop-color="#a6a6a6"/><stop offset="0.1" stop-color="#a6a6a6" stop-opacity="0.79"/><stop offset="0.24" stop-color="#a6a6a6" stop-opacity="0.55"/><stop offset="0.38" stop-color="#a6a6a6" stop-opacity="0.35"/><stop offset="0.52" stop-color="#a6a6a6" stop-opacity="0.2"/><stop offset="0.67" stop-color="#a6a6a6" stop-opacity="0.09"/><stop offset="0.83" stop-color="#a6a6a6" stop-opacity="0.02"/><stop offset="1" stop-color="#a6a6a6" stop-opacity="0"/></linearGradient><linearGradient id="Degradado_sin_nombre_12-2" x1="249" y1="436.95" x2="249" y2="406.54" gradientTransform="translate(2 27.24)" xlink:href="#Degradado_sin_nombre_12"/></defs><title>Artboard 1 copia</title><g class="cls-1"><g id="BACKGROUND"><rect class="cls-2" width="500" height="500"/></g><g id="OBJECTS"><rect class="cls-3" x="76.28" y="163.59" width="54.29" height="270.19"/><rect class="cls-3" x="150.06" y="280.78" width="54.29" height="153"/><rect class="cls-3" x="223.85" y="221.74" width="54.29" height="212.04"/><rect class="cls-3" x="297.64" y="139.08" width="54.29" height="294.71"/><rect class="cls-3" x="371.43" y="412.94" width="54.29" height="20.84"/><polygon class="cls-3" points="86.42 500 5.64 500 76.28 433.78 130.57 433.78 86.42 500"/><polygon class="cls-3" points="186.7 500 114.75 500 150.06 433.78 204.36 433.78 186.7 500"/><polygon class="cls-3" points="286.98 500 215.02 500 223.85 433.78 278.15 433.78 286.98 500"/><polygon class="cls-3" points="387.25 500 315.3 500 297.64 433.78 351.94 433.78 387.25 500"/><polygon class="cls-3" points="496.36 500 415.58 500 371.43 433.78 425.72 433.78 496.36 500"/><image class="cls-4" width="82" height="74" transform="translate(62.9 90)" xlink:href="Artboard%201%20copia1.png"/><polygon class="cls-5" points="135.07 96.89 71.78 96.89 71.78 145.46 96.25 145.46 103.42 152.64 110.6 145.46 135.07 145.46 135.07 96.89"/><image class="cls-4" width="81" height="74" transform="translate(136.9 205.3)" xlink:href="Artboard%201%20copia2.png"/><polygon class="cls-5" points="208.87 212.54 145.57 212.54 145.57 261.12 170.04 261.12 177.22 268.29 184.39 261.12 208.87 261.12 208.87 212.54"/><image class="cls-4" width="81" height="74" transform="translate(211.67 149.87)" xlink:href="Artboard%201%20copia3.png"/><polygon class="cls-5" points="283.27 156.8 219.97 156.8 219.97 205.37 244.45 205.37 251.62 212.54 258.8 205.37 283.27 205.37 283.27 156.8"/><image class="cls-4" width="81" height="74" transform="translate(284.9 68.93)" xlink:href="Artboard%201%20copia4.png"/><polygon class="cls-5" points="356.48 75.83 293.18 75.83 293.18 124.4 317.66 124.4 324.83 131.58 332.01 124.4 356.48 124.4 356.48 75.83"/><image class="cls-4" width="82" height="74" transform="translate(357.9 341.17)" xlink:href="Artboard%201%20copia5.png"/><polygon class="cls-5" points="430.23 347.83 366.93 347.83 366.93 396.4 391.4 396.4 398.58 403.58 405.75 396.4 430.23 396.4 430.23 347.83"/><path class="cls-3" d="M92.77,108.9v.91c0,2.38-.7,4.44-3,8.22l-4.13,6.62h7.18v3.5H81.36V125l5.49-8.85c1.72-2.77,2.21-4.49,2.21-6.48v-.49c0-1.61-.7-2.45-2.07-2.45s-2.06.84-2.06,2.9v1.23l-3.57-.18V109c0-3.6,2.13-5.7,5.7-5.7S92.77,105.36,92.77,108.9Z"/><path class="cls-3" d="M98.89,128.15H95.08L102,107.29h-7.7v-3.64h11.48v3.29Z"/><path class="cls-3" d="M114.57,107.15v5.32a3.75,3.75,0,1,1-7.49,0v-5.32a3.75,3.75,0,1,1,7.49,0Zm-5.32,21.35,11.62-25.2h2.31l-11.62,25.2Zm.35-21.35v5.32c0,1,.42,1.57,1.23,1.57s1.22-.52,1.22-1.57v-5.32c0-1.05-.42-1.58-1.22-1.58S109.6,106.1,109.6,107.15Zm15.75,12.18v5.32a3.75,3.75,0,1,1-7.49,0v-5.32a3.75,3.75,0,1,1,7.49,0Zm-5,0v5.32c0,1,.42,1.58,1.23,1.58s1.22-.53,1.22-1.58v-5.32c0-1-.42-1.58-1.22-1.58S120.38,118.28,120.38,119.33Z"/><path class="cls-3" d="M159.65,244.24V225.4h-5.11v-2.59c3-.21,5.46-1.22,6.23-3.08h2.59v24.51Z"/><path class="cls-3" d="M167.07,238.81v-1.08l3.57-.18v.88c0,1.85.7,2.73,2.17,2.73s2.24-.84,2.24-2.52v-5.08H175a4.15,4.15,0,0,1-3.22,1.33c-2.73,0-4.9-2-4.9-6v-3.32c0-3.85,2.27-6.2,6-6.2s5.92,2.35,5.92,6.2v13.09c0,3.71-2.21,5.92-5.88,5.92S167.07,242.52,167.07,238.81Zm8-10.15v-3c0-1.82-.81-2.8-2.24-2.8s-2.24,1-2.24,2.8v3c0,1.82.8,2.8,2.24,2.8S175.05,230.48,175.05,228.66Z"/><path class="cls-3" d="M188.87,223.23v5.32a3.75,3.75,0,1,1-7.49,0v-5.32a3.75,3.75,0,1,1,7.49,0Zm-5.32,21.36,11.62-25.21h2.31l-11.62,25.21Zm.35-21.36v5.32c0,1,.42,1.58,1.23,1.58s1.22-.53,1.22-1.58v-5.32c0-1-.42-1.57-1.22-1.57S183.9,222.18,183.9,223.23Zm15.75,12.18v5.33a3.75,3.75,0,1,1-7.49,0v-5.33a3.75,3.75,0,1,1,7.49,0Zm-5,0v5.33c0,1,.42,1.57,1.23,1.57s1.22-.52,1.22-1.57v-5.33c0-1-.42-1.57-1.22-1.57S194.68,234.36,194.68,235.41Z"/><path class="cls-3" d="M240.09,168.63v.91c0,2.38-.7,4.44-3,8.22l-4.13,6.62h7.17v3.5H228.68v-3.15l5.5-8.86c1.71-2.76,2.2-4.48,2.2-6.47v-.49c0-1.61-.7-2.45-2.06-2.45s-2.07.84-2.07,2.9v1.23l-3.57-.18v-1.68c0-3.6,2.14-5.7,5.71-5.7S240.09,165.09,240.09,168.63Z"/><path class="cls-3" d="M253.81,169.05v1.4c0,2.31-.87,3.85-2.69,4.58v.07q2.94,1.22,2.94,5.25v1.86c0,3.78-2.17,6-5.95,6s-6-2.17-6-5.88v-1.51l3.57-.17v1.22c0,2,.73,2.91,2.27,2.91s2.35-1,2.35-2.84v-1.89c0-2.17-.81-3.15-2.7-3.15h-1.54v-3.43h1.54c1.72,0,2.45-.91,2.45-3v-1.33c0-1.75-.77-2.73-2.2-2.73s-2.14.91-2.14,2.9v1.23l-3.57-.18v-1.5c0-3.71,2.14-5.88,5.81-5.88S253.81,165.27,253.81,169.05Z"/><path class="cls-3" d="M263.65,166.88v5.32a3.75,3.75,0,1,1-7.49,0v-5.32a3.75,3.75,0,1,1,7.49,0Zm-5.32,21.35L270,163h2.31l-11.62,25.2Zm.35-21.35v5.32c0,1.05.42,1.57,1.22,1.57s1.23-.52,1.23-1.57v-5.32c0-1-.42-1.58-1.23-1.58S258.68,165.83,258.68,166.88Zm15.75,12.18v5.32a3.75,3.75,0,1,1-7.49,0v-5.32a3.75,3.75,0,1,1,7.49,0Zm-5,0v5.32c0,1.05.42,1.57,1.22,1.57s1.23-.52,1.23-1.57v-5.32c0-1.05-.42-1.58-1.23-1.58S269.46,178,269.46,179.06Z"/><path class="cls-3" d="M312.9,89.24v.91c0,2.38-.7,4.45-3,8.23L305.72,105h7.18v3.5H301.49v-3.15l5.5-8.85c1.71-2.77,2.2-4.48,2.2-6.48v-.49c0-1.61-.7-2.45-2.07-2.45s-2.06.84-2.06,2.91V91.2L301.49,91V89.35c0-3.61,2.13-5.71,5.71-5.71S312.9,85.71,312.9,89.24Z"/><path class="cls-3" d="M315.45,103.07V102l3.57-.17v.87c0,1.86.7,2.73,2.18,2.73s2.24-.84,2.24-2.51V97.82h-.07a4.17,4.17,0,0,1-3.23,1.33c-2.72,0-4.9-2-4.9-6V89.84c0-3.85,2.28-6.2,6-6.2s5.92,2.35,5.92,6.2v13.09c0,3.71-2.21,5.91-5.89,5.91S315.45,106.78,315.45,103.07Zm8-10.15v-3c0-1.82-.81-2.8-2.24-2.8s-2.24,1-2.24,2.8v3c0,1.82.8,2.8,2.24,2.8S323.44,94.74,323.44,92.92Z"/><path class="cls-3" d="M337.26,87.49v5.32a3.75,3.75,0,1,1-7.49,0V87.49a3.75,3.75,0,1,1,7.49,0Zm-5.32,21.35,11.62-25.2h2.31l-11.62,25.2Zm.35-21.35v5.32c0,1,.42,1.58,1.22,1.58s1.23-.53,1.23-1.58V87.49c0-1-.42-1.57-1.23-1.57S332.29,86.44,332.29,87.49ZM348,99.67V105a3.75,3.75,0,1,1-7.49,0V99.67a3.75,3.75,0,1,1,7.49,0Zm-5,0V105c0,1.06.42,1.58,1.23,1.58s1.22-.52,1.22-1.58V99.67c0-1-.42-1.57-1.22-1.57S343.07,98.62,343.07,99.67Z"/><path class="cls-3" d="M394.05,360.69v.91c0,2.38-.7,4.45-3.05,8.23l-4.13,6.61h7.18v3.5H382.63v-3.15l5.5-8.85c1.72-2.77,2.21-4.48,2.21-6.48V361c0-1.61-.7-2.45-2.07-2.45s-2.06.84-2.06,2.91v1.22l-3.58-.17V360.8c0-3.61,2.14-5.71,5.71-5.71S394.05,357.16,394.05,360.69Z"/><path class="cls-3" d="M403.6,358.94v5.32a3.75,3.75,0,1,1-7.49,0v-5.32a3.75,3.75,0,1,1,7.49,0Zm-5.32,21.35,11.62-25.2h2.31l-11.62,25.2Zm.35-21.35v5.32c0,1.05.42,1.58,1.23,1.58s1.22-.53,1.22-1.58v-5.32c0-1.05-.42-1.57-1.22-1.57S398.63,357.89,398.63,358.94Zm15.75,12.18v5.32a3.75,3.75,0,1,1-7.49,0v-5.32a3.75,3.75,0,1,1,7.49,0Zm-5,0v5.32c0,1.05.42,1.58,1.23,1.58s1.22-.53,1.22-1.58v-5.32c0-1.05-.42-1.57-1.22-1.57S409.41,370.07,409.41,371.12Z"/><path d="M61,41.39a.34.34,0,0,1-.34.36H59.3a.36.36,0,0,1-.36-.36V35.11a.34.34,0,0,0-.34-.36h-5a.34.34,0,0,0-.34.36v6.28a.36.36,0,0,1-.36.36H51.48a.34.34,0,0,1-.34-.36V26.89a.34.34,0,0,1,.34-.37h1.39a.36.36,0,0,1,.36.37v5.84a.34.34,0,0,0,.34.37h5a.34.34,0,0,0,.34-.37V26.89a.36.36,0,0,1,.36-.37h1.38a.34.34,0,0,1,.34.37Z"/><path d="M72.26,26.89a.42.42,0,0,1,.39-.37H74a.29.29,0,0,1,.31.32,2.7,2.7,0,0,1-.06.36L70.7,41.3c-.07.29-.23.45-.5.45H66.91a.48.48,0,0,1-.49-.45L62.88,27.2a2.83,2.83,0,0,1-.07-.36.29.29,0,0,1,.32-.32h1.43a.41.41,0,0,1,.38.37l3.11,12.84c0,.21.13.37.34.37h.34c.2,0,.29-.16.34-.37Z"/><path d="M82.55,37.38c0-.21-.14-.36-.34-.36H77.54c-.2,0-.32.15-.36.36l-1,4a.42.42,0,0,1-.39.36H74.41a.28.28,0,0,1-.31-.32,3,3,0,0,1,.06-.36L77.74,27c.07-.3.23-.46.5-.46h3.2c.27,0,.43.16.5.46l3.6,14.09a3.21,3.21,0,0,1,.07.36.29.29,0,0,1-.32.32H83.93a.41.41,0,0,1-.38-.36Zm-2.2-8.84c0-.2-.14-.36-.34-.36h-.34c-.2,0-.29.16-.34.36L77.77,35a.22.22,0,0,0,0,.14c0,.15.12.22.37.22h3.51c.2,0,.36-.07.36-.25,0,0,0-.07,0-.11Z"/><path d="M98.05,36.61c0,3-2.18,5.14-5.6,5.14H87.33a.35.35,0,0,1-.36-.36v-.93a.35.35,0,0,1,.36-.36h.72a.34.34,0,0,0,.34-.37V28.54a.34.34,0,0,0-.34-.36h-.72a.35.35,0,0,1-.36-.36v-.93a.35.35,0,0,1,.36-.37h5.12c3.42,0,5.6,2.18,5.6,5.15ZM96,31.92c0-2.25-1.27-3.74-3.51-3.74H90.82a.34.34,0,0,0-.34.36V39.73a.34.34,0,0,0,.34.37h1.63c2.24,0,3.51-1.5,3.51-3.74Z"/><path d="M104.34,29.42a2.88,2.88,0,0,1,2.88-2.9h5.94a.36.36,0,0,1,.36.37v.93a.36.36,0,0,1-.36.36h-5.53a1.2,1.2,0,0,0-1.2,1.22v3.33a.34.34,0,0,0,.34.37h3.92a.35.35,0,0,1,.36.36v.93a.36.36,0,0,1-.36.36h-3.92a.34.34,0,0,0-.34.36v6.28a.36.36,0,0,1-.36.36h-1.39a.34.34,0,0,1-.34-.36Z"/><path d="M125.89,41.14a.63.63,0,0,1,.12.34c0,.16-.12.27-.32.27h-1.54c-.23,0-.37-.07-.55-.36L120,35.61a1.58,1.58,0,0,1-.32-1v-1.2a.35.35,0,0,1,.36-.36h2.18a1.2,1.2,0,0,0,1.2-1.23V29.4a1.2,1.2,0,0,0-1.2-1.22h-3.72a.34.34,0,0,0-.34.36V41.39a.36.36,0,0,1-.36.36h-1.38a.34.34,0,0,1-.34-.36V28.54a.34.34,0,0,0-.34-.36H115a.36.36,0,0,1-.36-.36v-.93a.36.36,0,0,1,.36-.37h7.61a2.88,2.88,0,0,1,2.88,2.9v2.43a2.87,2.87,0,0,1-2.88,2.9h-.83Z"/><path d="M135.79,26.89c.16-.3.25-.37.52-.37h1.23c.25,0,.38.09.38.28a.81.81,0,0,1-.13.4L133.35,35a1.72,1.72,0,0,0-.23.87v5.57a.36.36,0,0,1-.36.36h-1.39a.34.34,0,0,1-.34-.36V35.84a1.73,1.73,0,0,0-.22-.91l-4.4-7.73a.81.81,0,0,1-.13-.4c0-.19.13-.28.38-.28H128c.27,0,.37.07.52.37l3.13,5.64c.09.18.34.61.5.61s.41-.43.52-.61Z"/><path d="M146.65,40.55c0-.11-.05-.18-.14-.18a.27.27,0,0,0-.18.09,3.33,3.33,0,0,1-2.72,1.29h-1.68a2.86,2.86,0,0,1-2.87-2.9V29.42a2.87,2.87,0,0,1,2.87-2.9h5.71a.36.36,0,0,1,.37.37v.93a.36.36,0,0,1-.37.36h-5.3a1.2,1.2,0,0,0-1.2,1.22v9.47a1.2,1.2,0,0,0,1.2,1.23h1.25a3,3,0,0,0,3-3V35.34a.34.34,0,0,0-.34-.36H144.4a.36.36,0,0,1-.36-.37v-.92a.36.36,0,0,1,.36-.37h3.95a.34.34,0,0,1,.34.37v7.7a.34.34,0,0,1-.34.36H147a.36.36,0,0,1-.36-.36Z"/><path d="M153.33,28.54a.34.34,0,0,0-.34-.36h-3.44a.36.36,0,0,1-.37-.36v-.93a.36.36,0,0,1,.37-.37h9.65a.36.36,0,0,1,.36.37v.93a.36.36,0,0,1-.36.36h-3.45a.34.34,0,0,0-.34.36V41.39a.35.35,0,0,1-.36.36h-1.38a.34.34,0,0,1-.34-.36Z"/><path d="M161.58,26.89a.34.34,0,0,1,.34-.37h8a.36.36,0,0,1,.36.37v.93a.36.36,0,0,1-.36.36H164a.34.34,0,0,0-.34.36v4.19a.34.34,0,0,0,.34.37h3.92a.35.35,0,0,1,.36.36v.93a.36.36,0,0,1-.36.36H164a.34.34,0,0,0-.34.36v4.62a.34.34,0,0,0,.34.37h5.94a.36.36,0,0,1,.36.36v.93a.36.36,0,0,1-.36.36h-8a.34.34,0,0,1-.34-.36Z"/><path d="M182.54,41.14a.6.6,0,0,1,.11.34c0,.16-.11.27-.32.27h-1.54c-.23,0-.36-.07-.54-.36l-3.65-5.78a1.64,1.64,0,0,1-.32-1v-1.2a.35.35,0,0,1,.36-.36h2.18a1.2,1.2,0,0,0,1.2-1.23V29.4a1.2,1.2,0,0,0-1.2-1.22H175.1a.34.34,0,0,0-.34.36V41.39a.36.36,0,0,1-.36.36H173a.34.34,0,0,1-.34-.36V28.54a.34.34,0,0,0-.34-.36h-.73a.36.36,0,0,1-.36-.36v-.93a.36.36,0,0,1,.36-.37h7.62a2.88,2.88,0,0,1,2.88,2.9v2.43a2.87,2.87,0,0,1-2.88,2.9h-.84Z"/><path d="M198.51,36.61c0,3-2.18,5.14-5.6,5.14h-5.12a.36.36,0,0,1-.36-.36v-.93a.36.36,0,0,1,.36-.36h.73a.34.34,0,0,0,.34-.37V28.54a.34.34,0,0,0-.34-.36h-.73a.36.36,0,0,1-.36-.36v-.93a.36.36,0,0,1,.36-.37h5.12c3.42,0,5.6,2.18,5.6,5.15Zm-2.09-4.69c0-2.25-1.26-3.74-3.51-3.74h-1.63a.34.34,0,0,0-.34.36V39.73a.34.34,0,0,0,.34.37h1.63c2.25,0,3.51-1.5,3.51-3.74Z"/><path d="M205.8,41.75a4.62,4.62,0,0,1-4.62-4.67V26.89a.34.34,0,0,1,.34-.37h1.38a.36.36,0,0,1,.37.37V37.06a3,3,0,0,0,3,3h1.11a1.2,1.2,0,0,0,1.2-1.23v-12a.36.36,0,0,1,.36-.37h1.39a.34.34,0,0,1,.34.37v12a2.87,2.87,0,0,1-2.88,2.9Z"/><path d="M225.54,26.89a.41.41,0,0,1,.38-.37h1.36a.29.29,0,0,1,.32.32,1.75,1.75,0,0,1-.07.36L224,41.3c-.07.29-.23.45-.5.45h-3.29c-.27,0-.43-.16-.5-.45l-3.53-14.1a2.83,2.83,0,0,1-.07-.36.29.29,0,0,1,.32-.32h1.43a.41.41,0,0,1,.38.37l3.1,12.84c.05.21.14.37.34.37H222c.21,0,.3-.16.34-.37Z"/><path d="M229.39,26.89a.34.34,0,0,1,.34-.37h8a.35.35,0,0,1,.36.37v.93a.35.35,0,0,1-.36.36h-5.94a.33.33,0,0,0-.33.36v4.19a.34.34,0,0,0,.33.37h3.92a.35.35,0,0,1,.37.36v.93a.36.36,0,0,1-.37.36h-3.92a.33.33,0,0,0-.33.36v4.62a.34.34,0,0,0,.33.37h5.94a.35.35,0,0,1,.36.36v.93a.35.35,0,0,1-.36.36h-8a.34.34,0,0,1-.34-.36Z"/><path d="M250.37,36.61c0,3-2.17,5.14-5.6,5.14h-5.12a.36.36,0,0,1-.36-.36v-.93a.36.36,0,0,1,.36-.36h.73a.34.34,0,0,0,.34-.37V28.54a.34.34,0,0,0-.34-.36h-.73a.36.36,0,0,1-.36-.36v-.93a.36.36,0,0,1,.36-.37h5.12c3.43,0,5.6,2.18,5.6,5.15Zm-2.08-4.69c0-2.25-1.27-3.74-3.52-3.74h-1.63a.34.34,0,0,0-.34.36V39.73a.34.34,0,0,0,.34.37h1.63c2.25,0,3.52-1.5,3.52-3.74Z"/><path d="M264.24,37.38c-.05-.21-.14-.36-.34-.36h-4.67c-.2,0-.32.15-.36.36l-.95,4a.42.42,0,0,1-.39.36H256.1a.28.28,0,0,1-.31-.32,1.88,1.88,0,0,1,.07-.36L259.44,27c.06-.3.22-.46.49-.46h3.2c.27,0,.43.16.5.46l3.6,14.09a3.21,3.21,0,0,1,.07.36.29.29,0,0,1-.32.32h-1.36a.41.41,0,0,1-.38-.36ZM262,28.54c0-.2-.13-.36-.34-.36h-.34c-.2,0-.29.16-.34.36L259.46,35a.32.32,0,0,0,0,.14c0,.15.11.22.36.22h3.51c.2,0,.36-.07.36-.25,0,0,0-.07,0-.11Z"/><path d="M270.54,28.54a.34.34,0,0,0-.34-.36h-3.45a.36.36,0,0,1-.36-.36v-.93a.36.36,0,0,1,.36-.37h9.66a.36.36,0,0,1,.36.37v.93a.36.36,0,0,1-.36.36H273a.34.34,0,0,0-.34.36V41.39a.36.36,0,0,1-.36.36h-1.38a.34.34,0,0,1-.34-.36Z"/><path d="M284.49,41.39a.36.36,0,0,1-.36.36h-1.38a.34.34,0,0,1-.34-.36V26.89a.34.34,0,0,1,.34-.37h1.38a.36.36,0,0,1,.36.37Zm1.5-8.07a.83.83,0,0,1,.2-.59l3.9-5.84a.59.59,0,0,1,.59-.37h1.16c.24,0,.38.09.38.28a.74.74,0,0,1-.14.4l-4.21,6.37a.82.82,0,0,0-.11.36.56.56,0,0,0,.11.32l4.74,6.82a.74.74,0,0,1,.15.41c0,.18-.15.27-.4.27H291a.65.65,0,0,1-.61-.36l-4.08-5.89a1.57,1.57,0,0,1-.32-1Z"/><path d="M300.79,26.52a2.88,2.88,0,0,1,2.87,2.9v9.43a2.87,2.87,0,0,1-2.87,2.9h-4.33a2.87,2.87,0,0,1-2.88-2.9V29.42a2.88,2.88,0,0,1,2.88-2.9Zm-3.93,1.66a1.2,1.2,0,0,0-1.2,1.22v7.37L301.53,29a1.21,1.21,0,0,0-1.15-.86Zm4.72,10.69V31.49l-5.89,7.68a1.19,1.19,0,0,0,1.17.93h3.52A1.2,1.2,0,0,0,301.58,38.87Z"/><path d="M316.51,41.14a.6.6,0,0,1,.11.34c0,.16-.11.27-.32.27h-1.54c-.22,0-.36-.07-.54-.36l-3.65-5.78a1.64,1.64,0,0,1-.32-1v-1.2a.35.35,0,0,1,.37-.36h2.17a1.2,1.2,0,0,0,1.2-1.23V29.4a1.2,1.2,0,0,0-1.2-1.22h-3.71a.34.34,0,0,0-.34.36V41.39a.36.36,0,0,1-.37.36H307a.34.34,0,0,1-.34-.36V28.54a.34.34,0,0,0-.34-.36h-.72a.36.36,0,0,1-.37-.36v-.93a.36.36,0,0,1,.37-.37h7.61a2.88,2.88,0,0,1,2.88,2.9v2.43a2.87,2.87,0,0,1-2.88,2.9h-.84Z"/><path d="M318.66,26.89a.34.34,0,0,1,.34-.37h8a.35.35,0,0,1,.36.37v.93a.35.35,0,0,1-.36.36h-5.93a.34.34,0,0,0-.34.36v4.19a.34.34,0,0,0,.34.37H325a.35.35,0,0,1,.36.36v.93a.36.36,0,0,1-.36.36h-3.92a.34.34,0,0,0-.34.36v4.62a.34.34,0,0,0,.34.37H327a.35.35,0,0,1,.36.36v.93a.35.35,0,0,1-.36.36h-8a.34.34,0,0,1-.34-.36Z"/><path d="M333.07,29.42a2.88,2.88,0,0,1,2.88-2.9h5.94a.36.36,0,0,1,.36.37v.93a.36.36,0,0,1-.36.36h-5.53a1.2,1.2,0,0,0-1.2,1.22v3.33a.34.34,0,0,0,.34.37h3.92a.35.35,0,0,1,.36.36v.93a.36.36,0,0,1-.36.36H335.5a.34.34,0,0,0-.34.36v6.28a.36.36,0,0,1-.37.36h-1.38a.34.34,0,0,1-.34-.36Z"/><path d="M350.75,26.52a2.88,2.88,0,0,1,2.87,2.9v9.43a2.87,2.87,0,0,1-2.87,2.9h-4.33a2.87,2.87,0,0,1-2.88-2.9V29.42a2.88,2.88,0,0,1,2.88-2.9Zm-3.93,1.66a1.2,1.2,0,0,0-1.2,1.22v9.47a1.2,1.2,0,0,0,1.2,1.23h3.52a1.2,1.2,0,0,0,1.2-1.23V29.4a1.2,1.2,0,0,0-1.2-1.22Z"/><path d="M366.47,41.14a.6.6,0,0,1,.11.34c0,.16-.11.27-.32.27h-1.54c-.22,0-.36-.07-.54-.36l-3.65-5.78a1.64,1.64,0,0,1-.32-1v-1.2a.35.35,0,0,1,.37-.36h2.17a1.2,1.2,0,0,0,1.2-1.23V29.4a1.2,1.2,0,0,0-1.2-1.22H359a.34.34,0,0,0-.34.36V41.39a.36.36,0,0,1-.37.36H357a.34.34,0,0,1-.34-.36V28.54a.34.34,0,0,0-.34-.36h-.72a.36.36,0,0,1-.37-.36v-.93a.36.36,0,0,1,.37-.37h7.61a2.88,2.88,0,0,1,2.88,2.9v2.43a2.87,2.87,0,0,1-2.88,2.9h-.84Z"/><path d="M377.23,40.1a1.2,1.2,0,0,0,1.2-1.23V37.11c0-.68-.27-1-1.2-1.45l-2.81-1.39c-1.81-.88-2.88-1.4-2.88-3.24V29.42a2.88,2.88,0,0,1,2.88-2.9h5a.36.36,0,0,1,.36.37v.93a.36.36,0,0,1-.36.36h-4.62a1.2,1.2,0,0,0-1.2,1.22v1.54c0,.73.47,1.09,1.2,1.45l2.81,1.39c2,1,2.88,1.54,2.88,3.39v1.68a2.87,2.87,0,0,1-2.88,2.9h-6a.35.35,0,0,1-.36-.36v-.93a.35.35,0,0,1,.36-.36Z"/><path d="M385.16,28.54a.34.34,0,0,0-.34-.36h-3.44a.36.36,0,0,1-.37-.36v-.93a.36.36,0,0,1,.37-.37H391a.36.36,0,0,1,.36.37v.93a.36.36,0,0,1-.36.36h-3.45a.33.33,0,0,0-.33.36V41.39a.36.36,0,0,1-.37.36H385.5a.34.34,0,0,1-.34-.36Z"/><path d="M398.85,37h-5.28l-2,4.37a.64.64,0,0,1-.5.36h-1.36a.3.3,0,0,1-.34-.32,1.27,1.27,0,0,1,.09-.36L396.19,27c.14-.27.3-.46.57-.46h10.45a.36.36,0,0,1,.36.37v.93a.36.36,0,0,1-.36.36h-5.94a.34.34,0,0,0-.34.36v4.19a.34.34,0,0,0,.34.37h3.92a.35.35,0,0,1,.36.36v.93a.36.36,0,0,1-.36.36h-3.92a.34.34,0,0,0-.34.36v4.62a.34.34,0,0,0,.34.37h5.94a.36.36,0,0,1,.36.36v.93a.36.36,0,0,1-.36.36h-8a.34.34,0,0,1-.34-.36Zm-4.51-1.66h4.51V28.18h-1c-.2,0-.31.18-.4.36Z"/><path d="M420,41.14a.6.6,0,0,1,.11.34c0,.16-.11.27-.31.27h-1.54c-.23,0-.37-.07-.55-.36l-3.65-5.78a1.63,1.63,0,0,1-.31-1v-1.2a.35.35,0,0,1,.36-.36h2.18a1.2,1.2,0,0,0,1.2-1.23V29.4a1.2,1.2,0,0,0-1.2-1.22H412.6a.34.34,0,0,0-.34.36V41.39a.36.36,0,0,1-.36.36h-1.39a.34.34,0,0,1-.34-.36V28.54a.34.34,0,0,0-.34-.36h-.72a.36.36,0,0,1-.36-.36v-.93a.36.36,0,0,1,.36-.37h7.61a2.88,2.88,0,0,1,2.88,2.9v2.43a2.87,2.87,0,0,1-2.88,2.9h-.84Z"/><path d="M424.27,41.39a.36.36,0,0,1-.37.36h-1.38a.34.34,0,0,1-.34-.36V26.89a.34.34,0,0,1,.34-.37h1.38a.36.36,0,0,1,.37.37Zm1.49-8.07a.84.84,0,0,1,.21-.59l3.89-5.84c.19-.3.32-.37.59-.37h1.16c.25,0,.38.09.38.28a.81.81,0,0,1-.13.4l-4.22,6.37a1,1,0,0,0-.11.36.65.65,0,0,0,.11.32l4.74,6.82a.77.77,0,0,1,.16.41c0,.18-.16.27-.41.27h-1.36a.65.65,0,0,1-.61-.36l-4.08-5.89a1.57,1.57,0,0,1-.32-1Z"/><path d="M436.84,28.54a.34.34,0,0,0-.34-.36h-3.44a.35.35,0,0,1-.36-.36v-.93a.35.35,0,0,1,.36-.37h9.65a.35.35,0,0,1,.36.37v.93a.35.35,0,0,1-.36.36h-3.44a.34.34,0,0,0-.34.36V41.39a.36.36,0,0,1-.37.36h-1.38a.34.34,0,0,1-.34-.36Z"/><path d="M447.11,36.38a2.88,2.88,0,0,1,1.22-2.79l1.11-.92c1.09-.93,1.31-1.36,1.31-2.29v-1a1.2,1.2,0,0,0-1.2-1.22h-5a.36.36,0,0,1-.36-.36v-.93a.36.36,0,0,1,.36-.37H450a2.88,2.88,0,0,1,2.88,2.9v1c0,1.72-.86,2.47-2.06,3.51l-1.07.93a1.27,1.27,0,0,0-.52,1.18v.63a.35.35,0,0,1-.36.36h-1.38a.33.33,0,0,1-.34-.36Zm1.17,2.43a1.59,1.59,0,1,1-1.58,1.58A1.63,1.63,0,0,1,448.28,38.81Z"/><rect class="cls-6" x="1" y="373.37" width="500" height="60.41"/><rect class="cls-7" x="1" y="433.78" width="500" height="30.4" transform="translate(502 897.97) rotate(180)"/><path class="cls-3" d="M76.52,133.72a1,1,0,0,1,1-1h2.66a.12.12,0,0,1,.12.13v.64a.12.12,0,0,1-.12.13h-2a.43.43,0,0,0-.43.43v.7a.12.12,0,0,0,.12.13h1.47a.12.12,0,0,1,.12.13v.64a.12.12,0,0,1-.12.13H77.85a.12.12,0,0,0-.12.13v2.05a.12.12,0,0,1-.13.13h-1c-.08,0-.12,0-.12-.13Z"/><path class="cls-3" d="M82,131.4a1.25,1.25,0,0,1,1.25,1.24,1.23,1.23,0,0,1-.11.51l1.18,4.68a.62.62,0,0,1,0,.13c0,.06,0,.11-.1.11h-1a.13.13,0,0,1-.13-.13l-.27-1.22c0-.1-.06-.16-.17-.16H81.29a.2.2,0,0,0-.21.18l-.28,1.2a.15.15,0,0,1-.14.13h-.94a.11.11,0,0,1-.12-.11.35.35,0,0,1,0-.13l1.19-4.76a1.21,1.21,0,0,1-.07-.43A1.23,1.23,0,0,1,82,131.4Zm.22,2.46h-.45l-.39,1.65v.06c0,.06,0,.09.11.09h.91c.1,0,.18,0,.18-.13v0ZM82,133a.36.36,0,0,0,.37-.37.37.37,0,0,0-.74,0A.36.36,0,0,0,82,133Z"/><path class="cls-3" d="M85.8,132.83a.12.12,0,0,1,.12-.13h3.31a.12.12,0,0,1,.12.13v.64a.12.12,0,0,1-.12.13h-2.1a.12.12,0,0,0-.12.13v1a.12.12,0,0,0,.12.13h1.39a.12.12,0,0,1,.12.13v.64a.12.12,0,0,1-.12.13H87.13a.12.12,0,0,0-.12.13V137a.12.12,0,0,0,.12.13h2.1a.12.12,0,0,1,.12.13v.64a.12.12,0,0,1-.12.13H85.92a.12.12,0,0,1-.12-.13Z"/><path class="cls-3" d="M94.12,137.94a.12.12,0,0,1-.13.13H92.87c-.07,0-.11-.06-.15-.13L91,134.39v3.55a.12.12,0,0,1-.13.13H90a.12.12,0,0,1-.12-.13v-4.22a.11.11,0,0,0-.12-.12h-.26a.12.12,0,0,1-.12-.13v-.64a.12.12,0,0,1,.12-.13h1.65c.1,0,.16.06.21.16L93,136.19v-3.36a.12.12,0,0,1,.12-.13H94a.12.12,0,0,1,.13.13Z"/><path class="cls-3" d="M96,133.72a1,1,0,0,1,1-1h2.66a.12.12,0,0,1,.12.13v.64a.12.12,0,0,1-.12.13h-2a.43.43,0,0,0-.43.43v.7a.12.12,0,0,0,.12.13h1.46A.12.12,0,0,1,99,135v.64a.12.12,0,0,1-.13.13H97.37a.12.12,0,0,0-.12.13v2.05a.12.12,0,0,1-.13.13h-1c-.08,0-.12,0-.12-.13Z"/><path class="cls-3" d="M102.36,136.72c0-.1-.06-.16-.17-.16h-1.38a.21.21,0,0,0-.21.18l-.28,1.2a.15.15,0,0,1-.14.13h-.94q-.12,0-.12-.09a.49.49,0,0,1,0-.15l1.25-5c0-.11.08-.16.17-.16h1.82c.09,0,.15.05.17.16l1.26,5a.78.78,0,0,1,0,.14c0,.06,0,.1-.11.1h-1a.13.13,0,0,1-.13-.13Zm-1.48-1.21v.06c0,.06,0,.09.11.09h1c.09,0,.13,0,.13-.08s0-.07,0-.1l-.37-1.69c0-.07,0-.12-.12-.12h-.19c-.07,0-.1.05-.12.12Z"/><path class="cls-3" d="M108.54,137.86a.21.21,0,0,1,0,.12c0,.06,0,.09-.12.09h-1a.24.24,0,0,1-.21-.13L106,136.15a.55.55,0,0,1-.11-.34v-.66A.13.13,0,0,1,106,135h.77a.42.42,0,0,0,.42-.43V134a.42.42,0,0,0-.42-.43H105.6a.12.12,0,0,0-.12.13v4.21a.13.13,0,0,1-.13.13h-1a.12.12,0,0,1-.12-.13v-4.21a.12.12,0,0,0-.12-.13h-.26a.12.12,0,0,1-.12-.13v-.64a.12.12,0,0,1,.12-.13h3.49a1,1,0,0,1,1,1v1.1a1,1,0,0,1-1,1h-.29Z"/><path class="cls-3" d="M110,133.73a.12.12,0,0,0-.12-.13h-1.22a.12.12,0,0,1-.12-.13v-.64a.12.12,0,0,1,.12-.13h3.89a.13.13,0,0,1,.13.13v.64a.13.13,0,0,1-.13.13h-1.22a.12.12,0,0,0-.12.13v4.21a.12.12,0,0,1-.12.13h-1a.12.12,0,0,1-.12-.13Z"/><path class="cls-3" d="M116.65,134.5a.9.9,0,0,1-.31.65,1,1,0,0,1,.71,1v.93a1,1,0,0,1-1,1h-2.91a.13.13,0,0,1-.13-.13v-5.11a.13.13,0,0,1,.13-.13h2.51a1,1,0,0,1,1,1Zm-2.43.36H115a.43.43,0,0,0,.43-.43V134a.43.43,0,0,0-.43-.43h-.67a.12.12,0,0,0-.12.13Zm0,.9V137a.12.12,0,0,0,.12.13h1.07a.42.42,0,0,0,.42-.43v-.55a.42.42,0,0,0-.42-.43Z"/><path class="cls-3" d="M117.49,134.12c0-1,.42-1.42,1.42-1.42h1.44c1,0,1.42.42,1.42,1.42v2.53c0,1-.42,1.42-1.42,1.42h-1.44c-1,0-1.42-.42-1.42-1.42Zm1.22,1.84,1.76-2.17c-.08-.13-.24-.19-.5-.19h-.68c-.43,0-.58.16-.58.59Zm1.84.62v-1.79l-1.78,2.15c.08.16.24.23.52.23H120C120.4,137.17,120.55,137,120.55,136.58Z"/><path class="cls-3" d="M126.68,136.18a1.86,1.86,0,0,1-2,1.89h-2.37a.13.13,0,0,1-.13-.13v-.64a.13.13,0,0,1,.13-.13h.26a.12.12,0,0,0,.12-.13v-3.31a.12.12,0,0,0-.12-.13h-.26a.13.13,0,0,1-.13-.13v-.64a.13.13,0,0,1,.13-.13h2.37a1.86,1.86,0,0,1,2,1.89Zm-1.21-1.58a.94.94,0,0,0-.92-1h-.5a.12.12,0,0,0-.12.13V137a.12.12,0,0,0,.12.13h.5a.94.94,0,0,0,.92-1Z"/><path class="cls-3" d="M127.36,132.83a.12.12,0,0,1,.12-.13h3.31a.12.12,0,0,1,.13.13v.64a.12.12,0,0,1-.13.13H128.7a.12.12,0,0,0-.12.13v1a.12.12,0,0,0,.12.13h1.38a.13.13,0,0,1,.13.13v.64a.13.13,0,0,1-.13.13H128.7a.12.12,0,0,0-.12.13V137a.12.12,0,0,0,.12.13h2.09a.12.12,0,0,1,.13.13v.64a.12.12,0,0,1-.13.13h-3.31a.12.12,0,0,1-.12-.13Z"/><path class="cls-3" d="M154.55,253.75a.13.13,0,0,1-.13.13h-1a.12.12,0,0,1-.12-.13v-5.12a.12.12,0,0,1,.12-.13h1a.13.13,0,0,1,.13.13Zm.4-2.9a.49.49,0,0,1,.08-.27l1.3-2c.07-.1.11-.13.21-.13h.92c.08,0,.13,0,.13.1a.22.22,0,0,1-.05.14L156,251a.38.38,0,0,0,0,.13.25.25,0,0,0,0,.11l1.83,2.41a.22.22,0,0,1,.06.13c0,.07-.06.11-.14.11h-1c-.09,0-.14,0-.21-.13l-1.46-2a.47.47,0,0,1-.13-.33Z"/><path class="cls-3" d="M158,248.63a.12.12,0,0,1,.12-.13h1a.13.13,0,0,1,.13.13v4.22a.12.12,0,0,0,.12.12h2a.13.13,0,0,1,.13.13v.65a.13.13,0,0,1-.13.13h-3.23a.12.12,0,0,1-.12-.13Z"/><path class="cls-3" d="M162.71,249.53a.12.12,0,0,0-.12-.12h-.5a.13.13,0,0,1-.13-.13v-.65a.13.13,0,0,1,.13-.13h2.29a.12.12,0,0,1,.12.13v.65a.12.12,0,0,1-.12.13H164a.12.12,0,0,0-.12.12v3.32a.12.12,0,0,0,.12.12h.74a.12.12,0,0,1,.12.13v.65a.12.12,0,0,1-.12.13h-3.17a.13.13,0,0,1-.13-.13v-.65a.13.13,0,0,1,.13-.13h1a.12.12,0,0,0,.12-.12Z"/><path class="cls-3" d="M165.45,249.53a.12.12,0,0,0-.12-.12h-.26a.12.12,0,0,1-.12-.13v-.65a.12.12,0,0,1,.12-.13h2.47c1.6,0,2,.74,2,1.65s-.33,1.81-1.88,1.81h-.52a.13.13,0,0,1-.13-.13v-.65a.13.13,0,0,1,.13-.13h.35c.58,0,.82-.23.82-.81s-.24-.83-.82-.83h-.66a.11.11,0,0,0-.12.12v4.22a.13.13,0,0,1-.13.13h-1a.12.12,0,0,1-.12-.13Z"/><path class="cls-3" d="M171.93,249.53a.12.12,0,0,0-.12-.12h-.5a.12.12,0,0,1-.12-.13v-.65a.12.12,0,0,1,.12-.13h2.29a.13.13,0,0,1,.13.13v.65a.13.13,0,0,1-.13.13h-.34a.11.11,0,0,0-.11.12v3.32a.11.11,0,0,0,.11.12H174a.13.13,0,0,1,.13.13v.65a.13.13,0,0,1-.13.13h-3.17a.12.12,0,0,1-.12-.13v-.65a.12.12,0,0,1,.12-.13h1a.12.12,0,0,0,.12-.12Z"/><path class="cls-3" d="M176.94,253.75a.13.13,0,0,1-.13.13h-1a.12.12,0,0,1-.12-.13v-5.12a.12.12,0,0,1,.12-.13h1a.13.13,0,0,1,.13.13Zm.41-2.9a.42.42,0,0,1,.08-.27l1.29-2c.07-.1.11-.13.21-.13h.92c.09,0,.13,0,.13.1a.27.27,0,0,1,0,.14L178.42,251a.38.38,0,0,0,0,.13.25.25,0,0,0,0,.11l1.84,2.41a.2.2,0,0,1,.05.13c0,.07-.05.11-.14.11h-1c-.09,0-.14,0-.21-.13l-1.46-2a.45.45,0,0,1-.12-.33Z"/><path class="cls-3" d="M180.19,249.93c0-1,.42-1.43,1.42-1.43h1.45c1,0,1.41.43,1.41,1.43v2.52c0,1-.41,1.43-1.41,1.43h-1.45c-1,0-1.42-.43-1.42-1.43Zm1.22,2.45c0,.43.15.59.58.59h.68c.43,0,.59-.16.59-.59V250c0-.43-.16-.59-.59-.59H182c-.43,0-.58.16-.58.59Z"/><path class="cls-3" d="M189.54,253.66a.21.21,0,0,1,0,.12c0,.06,0,.1-.12.1h-1a.26.26,0,0,1-.21-.13L187,252a.51.51,0,0,1-.11-.34V251a.13.13,0,0,1,.13-.13h.76a.43.43,0,0,0,.43-.43v-.55a.43.43,0,0,0-.43-.43h-1.15a.12.12,0,0,0-.12.12v4.22a.12.12,0,0,1-.12.13h-1a.12.12,0,0,1-.12-.13v-4.22a.12.12,0,0,0-.12-.12h-.26a.13.13,0,0,1-.13-.13v-.65a.13.13,0,0,1,.13-.13h3.49a1,1,0,0,1,1,1v1.09a1,1,0,0,1-1,1h-.3Z"/><path class="cls-3" d="M191,249.53a.12.12,0,0,0-.12-.12h-1.22a.13.13,0,0,1-.13-.13v-.65a.13.13,0,0,1,.13-.13h3.89a.12.12,0,0,1,.12.13v.65a.12.12,0,0,1-.12.13h-1.22a.12.12,0,0,0-.12.12v4.22a.13.13,0,0,1-.13.13h-1a.12.12,0,0,1-.12-.13Z"/><path class="cls-3" d="M194,248.63a.12.12,0,0,1,.12-.13h3.31a.13.13,0,0,1,.13.13v.65a.13.13,0,0,1-.13.13h-2.09a.12.12,0,0,0-.12.12v1a.12.12,0,0,0,.12.13h1.38a.13.13,0,0,1,.13.13v.65a.13.13,0,0,1-.13.13h-1.38a.12.12,0,0,0-.12.12v1.16a.12.12,0,0,0,.12.12h2.09a.13.13,0,0,1,.13.13v.65a.13.13,0,0,1-.13.13h-3.31a.12.12,0,0,1-.12-.13Z"/><path class="cls-3" d="M199.08,249.53a.12.12,0,0,0-.12-.12h-1.21a.13.13,0,0,1-.13-.13v-.65a.13.13,0,0,1,.13-.13h3.88a.13.13,0,0,1,.13.13v.65a.13.13,0,0,1-.13.13h-1.21a.11.11,0,0,0-.12.12v4.22a.13.13,0,0,1-.13.13h-1a.12.12,0,0,1-.12-.13Z"/><path class="cls-3" d="M235.8,198.32a.12.12,0,0,1-.13.12h-1a.12.12,0,0,1-.12-.12V193.2a.12.12,0,0,1,.12-.13h1a.13.13,0,0,1,.13.13Zm.41-2.9a.41.41,0,0,1,.08-.27l1.29-2c.07-.1.11-.13.21-.13h.92c.09,0,.14,0,.14.1a.3.3,0,0,1,0,.14l-1.51,2.25a.24.24,0,0,0,0,.13.17.17,0,0,0,0,.11l1.83,2.4a.24.24,0,0,1,0,.14c0,.06,0,.1-.14.1h-1a.24.24,0,0,1-.22-.12l-1.46-2a.45.45,0,0,1-.12-.33Z"/><path class="cls-3" d="M239.06,194.49c0-1,.41-1.42,1.41-1.42h1.45c1,0,1.41.43,1.41,1.42V197c0,1-.41,1.42-1.41,1.42h-1.45c-1,0-1.41-.42-1.41-1.42Zm1.21,1.84,1.76-2.16c-.08-.14-.24-.19-.5-.19h-.68c-.43,0-.58.16-.58.59Zm1.85.62v-1.79l-1.78,2.16c.08.16.24.22.51.22h.68C242,197.54,242.12,197.38,242.12,197Z"/><path class="cls-3" d="M248.4,198.23a.24.24,0,0,1,0,.12c0,.06,0,.09-.12.09h-1a.25.25,0,0,1-.21-.12l-1.29-1.8a.51.51,0,0,1-.11-.34v-.66a.13.13,0,0,1,.13-.13h.77A.42.42,0,0,0,247,195v-.55a.42.42,0,0,0-.42-.43h-1.15a.11.11,0,0,0-.12.12v4.22a.12.12,0,0,1-.13.12h-1a.12.12,0,0,1-.12-.12V194.1A.12.12,0,0,0,244,194h-.26a.12.12,0,0,1-.12-.13v-.65a.12.12,0,0,1,.12-.13h3.49a1,1,0,0,1,1,1v1.09a1,1,0,0,1-1,1h-.3Z"/><path class="cls-3" d="M248.89,193.2a.12.12,0,0,1,.12-.13h3.31a.13.13,0,0,1,.13.13v.65a.13.13,0,0,1-.13.13h-2.1a.12.12,0,0,0-.12.12v1a.12.12,0,0,0,.12.13h1.39a.12.12,0,0,1,.12.13V196a.12.12,0,0,1-.12.12h-1.39a.12.12,0,0,0-.12.13v1.15a.12.12,0,0,0,.12.13h2.1a.13.13,0,0,1,.13.13v.65a.12.12,0,0,1-.13.12H249a.12.12,0,0,1-.12-.12Z"/><path class="cls-3" d="M256.87,196.5a.12.12,0,0,0-.12-.13h-.33a.12.12,0,0,1-.13-.12v-.65a.13.13,0,0,1,.13-.13H258a.12.12,0,0,1,.12.13v2.72a.12.12,0,0,1-.12.12h-.87a.12.12,0,0,1-.13-.12V198s0-.06,0-.06,0,0-.07,0a1.17,1.17,0,0,1-1,.45h-.6c-1,0-1.41-.42-1.41-1.42v-2.53c0-1,.41-1.42,1.41-1.42h2.43a.12.12,0,0,1,.12.13v.65a.12.12,0,0,1-.12.13h-2c-.43,0-.59.16-.59.59V197c0,.43.16.59.59.59h.6c.43,0,.58-.16.58-.59Z"/><path class="cls-3" d="M261.65,197.09c0-.09-.06-.16-.17-.16H260.1a.21.21,0,0,0-.21.18l-.28,1.21a.15.15,0,0,1-.14.12h-.94c-.08,0-.11,0-.11-.09a.44.44,0,0,1,0-.15l1.25-5a.17.17,0,0,1,.17-.16h1.82a.17.17,0,0,1,.17.16l1.26,5a.36.36,0,0,1,0,.14c0,.06,0,.1-.11.1h-1a.13.13,0,0,1-.13-.12Zm-1.47-1.2a.11.11,0,0,0,0,.05c0,.07,0,.09.11.09h1c.09,0,.13,0,.13-.08a.41.41,0,0,0,0-.1l-.37-1.68c0-.07-.05-.13-.12-.13h-.18c-.08,0-.11.06-.12.13Z"/><path class="cls-3" d="M263.53,193.2a.12.12,0,0,1,.12-.13h1a.12.12,0,0,1,.12.13v4.21a.12.12,0,0,0,.12.13h2a.13.13,0,0,1,.13.13v.65a.12.12,0,0,1-.13.12h-3.23a.12.12,0,0,1-.12-.12Z"/><path class="cls-3" d="M267.41,194.1a.12.12,0,0,0-.12-.12h-1.22a.13.13,0,0,1-.13-.13v-.65a.13.13,0,0,1,.13-.13H270a.13.13,0,0,1,.13.13v.65a.13.13,0,0,1-.13.13h-1.22a.12.12,0,0,0-.12.12v4.22a.12.12,0,0,1-.12.12h-1a.12.12,0,0,1-.12-.12Z"/><path class="cls-3" d="M303.57,117.11c.24,0,.42-.12.42-.36v-.25c0-.24-.15-.35-.48-.51l-1-.49c-.64-.31-1-.5-1-1.15v-.69a1,1,0,0,1,1-1h2.25a.12.12,0,0,1,.13.12v.65a.13.13,0,0,1-.13.13h-1.68c-.24,0-.43.11-.43.35v.18c0,.26.19.36.48.51l1,.49c.72.35,1,.54,1,1.2V117a1,1,0,0,1-1,1h-2.58a.13.13,0,0,1-.13-.13v-.65a.12.12,0,0,1,.13-.12Z"/><path class="cls-3" d="M306.93,117.88a.13.13,0,0,1-.13.13h-1a.12.12,0,0,1-.12-.13v-5.12a.12.12,0,0,1,.12-.12h1a.12.12,0,0,1,.13.12Zm.4-2.89a.44.44,0,0,1,.09-.28l1.29-1.95a.21.21,0,0,1,.21-.12h.92c.09,0,.13,0,.13.09a.34.34,0,0,1,0,.15l-1.51,2.24a.24.24,0,0,0,0,.13.17.17,0,0,0,0,.11l1.83,2.41a.2.2,0,0,1,.05.13c0,.07-.05.11-.14.11h-1c-.09,0-.14,0-.21-.13l-1.46-2a.45.45,0,0,1-.13-.33Z"/><path class="cls-3" d="M313.21,116.66c0-.1-.06-.16-.17-.16h-1.38a.2.2,0,0,0-.21.17l-.28,1.21a.16.16,0,0,1-.14.13h-.94c-.08,0-.11,0-.11-.1a.36.36,0,0,1,0-.14l1.25-5c0-.11.08-.16.17-.16h1.82c.09,0,.15,0,.18.16l1.25,5a.32.32,0,0,1,0,.13.1.1,0,0,1-.11.11h-1a.14.14,0,0,1-.13-.13Zm-1.47-1.21a.13.13,0,0,0,0,.06c0,.06,0,.08.11.08h1c.09,0,.13,0,.13-.08s0-.06,0-.09l-.37-1.69c0-.07-.05-.13-.12-.13h-.19c-.07,0-.1.06-.11.13Z"/><path class="cls-3" d="M319.32,116.11a1.87,1.87,0,0,1-2,1.9H315a.13.13,0,0,1-.13-.13v-.65a.12.12,0,0,1,.13-.12h.25a.12.12,0,0,0,.12-.13v-3.31a.12.12,0,0,0-.12-.13H315a.13.13,0,0,1-.13-.13v-.65a.12.12,0,0,1,.13-.12h2.36a1.86,1.86,0,0,1,2,1.89Zm-1.22-1.57a.94.94,0,0,0-.92-1h-.49a.12.12,0,0,0-.12.13V117a.12.12,0,0,0,.12.13h.49a.94.94,0,0,0,.92-1Z"/><path class="cls-3" d="M320,112.76a.12.12,0,0,1,.12-.12h3.31a.12.12,0,0,1,.13.12v.65a.13.13,0,0,1-.13.13h-2.1a.12.12,0,0,0-.11.13v1a.11.11,0,0,0,.11.12h1.39a.13.13,0,0,1,.13.13v.65a.13.13,0,0,1-.13.13h-1.39c-.07,0-.11,0-.11.13V117a.12.12,0,0,0,.11.13h2.1a.12.12,0,0,1,.13.12v.65a.13.13,0,0,1-.13.13h-3.31a.12.12,0,0,1-.12-.13Z"/><path class="cls-3" d="M327.94,116.66c0-.1-.05-.16-.17-.16H326.4a.21.21,0,0,0-.22.17l-.28,1.21a.14.14,0,0,1-.13.13h-.95c-.08,0-.11,0-.11-.1a.39.39,0,0,1,0-.14l1.24-5c0-.11.08-.16.18-.16H328a.17.17,0,0,1,.18.16l1.26,5a.69.69,0,0,1,0,.13.1.1,0,0,1-.11.11h-1a.16.16,0,0,1-.14-.13Zm-1.47-1.21a.13.13,0,0,0,0,.06c0,.06,0,.08.12.08h1c.09,0,.13,0,.13-.08a.37.37,0,0,0,0-.09l-.37-1.69c0-.07,0-.13-.12-.13H327c-.07,0-.1.06-.12.13Z"/><path class="cls-3" d="M334.15,117.88a.13.13,0,0,1-.13.13h-1.13c-.07,0-.11-.07-.14-.13L331,114.32v3.56a.13.13,0,0,1-.13.13H330a.12.12,0,0,1-.12-.13v-4.22a.11.11,0,0,0-.12-.12h-.26a.13.13,0,0,1-.13-.13v-.65a.12.12,0,0,1,.13-.12h1.65a.24.24,0,0,1,.21.16l1.63,3.32v-3.36a.11.11,0,0,1,.12-.12H334a.12.12,0,0,1,.13.12Z"/><path class="cls-3" d="M339.14,116.11a1.87,1.87,0,0,1-2,1.9H334.8a.13.13,0,0,1-.13-.13v-.65a.12.12,0,0,1,.13-.12h.26a.12.12,0,0,0,.12-.13v-3.31a.12.12,0,0,0-.12-.13h-.26a.13.13,0,0,1-.13-.13v-.65a.12.12,0,0,1,.13-.12h2.37a1.86,1.86,0,0,1,2,1.89Zm-1.21-1.57a.94.94,0,0,0-.92-1h-.5a.12.12,0,0,0-.12.13V117a.12.12,0,0,0,.12.13h.5a.94.94,0,0,0,.92-1Z"/><path class="cls-3" d="M344.37,117.79a.21.21,0,0,1,0,.12c0,.07,0,.1-.12.1h-1a.24.24,0,0,1-.21-.13l-1.29-1.8a.51.51,0,0,1-.11-.33v-.67a.13.13,0,0,1,.13-.13h.76a.43.43,0,0,0,.43-.43V114a.43.43,0,0,0-.43-.43h-1.15a.12.12,0,0,0-.12.13v4.21a.13.13,0,0,1-.13.13h-1a.12.12,0,0,1-.12-.13v-4.21a.12.12,0,0,0-.12-.13h-.26a.13.13,0,0,1-.13-.13v-.65a.12.12,0,0,1,.13-.12h3.49a1,1,0,0,1,1,1v1.09a1,1,0,0,1-1,1h-.3Z"/><path class="cls-3" d="M344.86,112.76a.11.11,0,0,1,.12-.12h3.31a.12.12,0,0,1,.12.12v.65a.12.12,0,0,1-.12.13h-2.1a.12.12,0,0,0-.12.13v1a.12.12,0,0,0,.12.12h1.38a.13.13,0,0,1,.13.13v.65a.13.13,0,0,1-.13.13h-1.38a.12.12,0,0,0-.12.13V117a.12.12,0,0,0,.12.13h2.1a.12.12,0,0,1,.12.12v.65a.12.12,0,0,1-.12.13H345a.12.12,0,0,1-.12-.13Z"/><path class="cls-3" d="M379.49,391a.18.18,0,0,1-.18.16h-1.49a.18.18,0,0,1-.18-.16l-.46-3.44c0-.07-.05-.13-.12-.13H377a.12.12,0,0,0-.12.13v4.05a.13.13,0,0,1-.13.13h-.95a.12.12,0,0,1-.12-.13v-5.12a.12.12,0,0,1,.12-.12h2a.17.17,0,0,1,.18.16l.44,3.43c0,.08,0,.13.12.13h0c.07,0,.11-.05.12-.13l.44-3.43a.17.17,0,0,1,.18-.16h2a.11.11,0,0,1,.12.12v5.12a.12.12,0,0,1-.12.13h-.95a.13.13,0,0,1-.13-.13v-4.05a.12.12,0,0,0-.12-.13h-.07c-.07,0-.11.06-.12.13Z"/><path class="cls-3" d="M382.22,386.44a.11.11,0,0,1,.12-.12h3.31a.12.12,0,0,1,.12.12v.65a.12.12,0,0,1-.12.13h-2.1a.12.12,0,0,0-.12.13v1a.12.12,0,0,0,.12.13h1.39a.12.12,0,0,1,.12.12v.65a.12.12,0,0,1-.12.13h-1.39a.12.12,0,0,0-.12.13v1.15a.12.12,0,0,0,.12.13h2.1a.12.12,0,0,1,.12.12v.65a.12.12,0,0,1-.12.13h-3.31a.12.12,0,0,1-.12-.13Z"/><path class="cls-3" d="M390.68,391.47a.24.24,0,0,1,.05.12c0,.07-.05.1-.12.1h-1a.24.24,0,0,1-.21-.13l-1.29-1.8a.51.51,0,0,1-.11-.33v-.67a.13.13,0,0,1,.13-.13h.77a.42.42,0,0,0,.42-.43v-.55a.42.42,0,0,0-.42-.43h-1.15a.12.12,0,0,0-.12.13v4.21a.13.13,0,0,1-.13.13h-1a.12.12,0,0,1-.12-.13v-4.21a.12.12,0,0,0-.12-.13H386a.12.12,0,0,1-.12-.13v-.65a.12.12,0,0,1,.12-.12h3.49a1,1,0,0,1,1,1v1.1a1,1,0,0,1-1,1h-.3Z"/><path class="cls-3" d="M391.17,386.44a.12.12,0,0,1,.12-.12h3.31a.12.12,0,0,1,.13.12v.65a.13.13,0,0,1-.13.13h-2.1a.12.12,0,0,0-.12.13v1a.12.12,0,0,0,.12.13h1.39a.12.12,0,0,1,.12.12v.65a.12.12,0,0,1-.12.13H392.5a.12.12,0,0,0-.12.13v1.15a.12.12,0,0,0,.12.13h2.1a.12.12,0,0,1,.13.12v.65a.13.13,0,0,1-.13.13h-3.31a.12.12,0,0,1-.12-.13Z"/><path class="cls-3" d="M399.89,388.11a.85.85,0,0,1-.31.65,1,1,0,0,1,.71,1v.93a1,1,0,0,1-1,1h-2.9a.13.13,0,0,1-.13-.13v-5.12a.12.12,0,0,1,.13-.12h2.5a1,1,0,0,1,1,1Zm-2.43.37h.8a.43.43,0,0,0,.42-.44v-.39a.42.42,0,0,0-.42-.43h-.68a.12.12,0,0,0-.12.13Zm0,.9v1.28a.12.12,0,0,0,.12.13h1.08a.43.43,0,0,0,.42-.44v-.54a.42.42,0,0,0-.42-.43Z"/><path class="cls-3" d="M400.82,386.44a.11.11,0,0,1,.12-.12h3.31a.12.12,0,0,1,.12.12v.65a.12.12,0,0,1-.12.13h-2.1a.12.12,0,0,0-.12.13v1a.12.12,0,0,0,.12.13h1.39a.12.12,0,0,1,.12.12v.65a.12.12,0,0,1-.12.13h-1.39a.12.12,0,0,0-.12.13v1.15a.12.12,0,0,0,.12.13h2.1a.12.12,0,0,1,.12.12v.65a.12.12,0,0,1-.12.13h-3.31a.12.12,0,0,1-.12-.13Z"/><path class="cls-3" d="M409.14,391.56a.13.13,0,0,1-.13.13h-1.12c-.08,0-.12-.06-.15-.13L406,388v3.56a.13.13,0,0,1-.13.13H405a.12.12,0,0,1-.12-.13v-4.22a.11.11,0,0,0-.12-.12h-.26a.13.13,0,0,1-.13-.13v-.65a.12.12,0,0,1,.13-.12h1.65c.1,0,.16.06.21.16L408,389.8v-3.36a.12.12,0,0,1,.12-.12H409a.12.12,0,0,1,.13.12Z"/><path class="cls-3" d="M410.68,387.22a.12.12,0,0,0-.13.12v.26a.12.12,0,0,1-.13.12h-.72a.12.12,0,0,1-.13-.12v-1.16a.12.12,0,0,1,.13-.12H413a.12.12,0,0,1,.12.12v.79a.7.7,0,0,1-.12.37l-2.1,3.06s0,0,0,0,.08.08.13.08h1.22a.12.12,0,0,0,.13-.12v-.26a.13.13,0,0,1,.13-.13h.73a.13.13,0,0,1,.13.13v1.15a.13.13,0,0,1-.13.13h-3.55a.12.12,0,0,1-.12-.13v-.77a.38.38,0,0,1,.07-.21l2.18-3.2a.31.31,0,0,0,0-.08c0-.06-.06-.08-.11-.08Z"/><path class="cls-3" d="M414.71,387.35a.12.12,0,0,0-.12-.13h-.49a.13.13,0,0,1-.13-.13v-.65a.12.12,0,0,1,.13-.12h2.28a.12.12,0,0,1,.13.12v.65a.13.13,0,0,1-.13.13h-.33a.12.12,0,0,0-.12.13v3.31a.12.12,0,0,0,.12.13h.73a.12.12,0,0,1,.13.12v.65a.13.13,0,0,1-.13.13h-3.16a.13.13,0,0,1-.13-.13v-.65a.12.12,0,0,1,.13-.12h1a.12.12,0,0,0,.12-.13Z"/><path class="cls-3" d="M421.68,391.56a.13.13,0,0,1-.13.13h-1.13c-.07,0-.11-.06-.14-.13L418.57,388v3.56a.13.13,0,0,1-.13.13h-.9a.12.12,0,0,1-.12-.13v-4.22a.11.11,0,0,0-.12-.12h-.25a.13.13,0,0,1-.13-.13v-.65a.12.12,0,0,1,.13-.12h1.65a.22.22,0,0,1,.2.16l1.63,3.32v-3.36a.12.12,0,0,1,.12-.12h.9a.12.12,0,0,1,.13.12Z"/></g></g></svg>